<svg width="194" height="40" viewBox="0 0 194 40" fill="none" xmlns="http://www.w3.org/2000/svg">
<g filter="url(#filter0_i)">
<rect width="194" height="40" rx="10" fill="#249945" fill-opacity="0.99"/>
</g>
<rect x="0.5" y="0.5" width="193" height="39" rx="9.5" stroke="white"/>
<g filter="url(#filter1_i)">
<path d="M57.7727 19.84C58.5593 19.9867 59.206 20.38 59.7127 21.02C60.2193 21.66 60.4727 22.3933 60.4727 23.22C60.4727 23.9667 60.286 24.6267 59.9127 25.2C59.5527 25.76 59.026 26.2 58.3327 26.52C57.6393 26.84 56.8193 27 55.8727 27H49.8527V13.04H55.6127C56.5593 13.04 57.3727 13.1933 58.0527 13.5C58.746 13.8067 59.266 14.2333 59.6127 14.78C59.9727 15.3267 60.1527 15.9467 60.1527 16.64C60.1527 17.4533 59.9327 18.1333 59.4927 18.68C59.066 19.2267 58.4927 19.6133 57.7727 19.84ZM52.6527 18.8H55.2127C55.8793 18.8 56.3927 18.6533 56.7527 18.36C57.1127 18.0533 57.2927 17.62 57.2927 17.06C57.2927 16.5 57.1127 16.0667 56.7527 15.76C56.3927 15.4533 55.8793 15.3 55.2127 15.3H52.6527V18.8ZM55.4727 24.72C56.1527 24.72 56.6793 24.56 57.0527 24.24C57.4393 23.92 57.6327 23.4667 57.6327 22.88C57.6327 22.28 57.4327 21.8133 57.0327 21.48C56.6327 21.1333 56.0927 20.96 55.4127 20.96H52.6527V24.72H55.4727ZM73.1642 15.92V27H70.3442V25.6C69.9842 26.08 69.5109 26.46 68.9242 26.74C68.3509 27.0067 67.7242 27.14 67.0442 27.14C66.1776 27.14 65.4109 26.96 64.7442 26.6C64.0776 26.2267 63.5509 25.6867 63.1642 24.98C62.7909 24.26 62.6042 23.4067 62.6042 22.42V15.92H65.4042V22.02C65.4042 22.9 65.6242 23.58 66.0642 24.06C66.5042 24.5267 67.1042 24.76 67.8642 24.76C68.6376 24.76 69.2442 24.5267 69.6842 24.06C70.1242 23.58 70.3442 22.9 70.3442 22.02V15.92H73.1642ZM75.2069 21.42C75.2069 20.3 75.4269 19.3067 75.8669 18.44C76.3202 17.5733 76.9269 16.9067 77.6869 16.44C78.4602 15.9733 79.3202 15.74 80.2669 15.74C81.0935 15.74 81.8135 15.9067 82.4269 16.24C83.0535 16.5733 83.5535 16.9933 83.9269 17.5V15.92H86.7469V27H83.9269V25.38C83.5669 25.9 83.0669 26.3333 82.4269 26.68C81.8002 27.0133 81.0735 27.18 80.2469 27.18C79.3135 27.18 78.4602 26.94 77.6869 26.46C76.9269 25.98 76.3202 25.3067 75.8669 24.44C75.4269 23.56 75.2069 22.5533 75.2069 21.42ZM83.9269 21.46C83.9269 20.78 83.7935 20.2 83.5269 19.72C83.2602 19.2267 82.9002 18.8533 82.4469 18.6C81.9935 18.3333 81.5069 18.2 80.9869 18.2C80.4669 18.2 79.9869 18.3267 79.5469 18.58C79.1069 18.8333 78.7469 19.2067 78.4669 19.7C78.2002 20.18 78.0669 20.7533 78.0669 21.42C78.0669 22.0867 78.2002 22.6733 78.4669 23.18C78.7469 23.6733 79.1069 24.0533 79.5469 24.32C80.0002 24.5867 80.4802 24.72 80.9869 24.72C81.5069 24.72 81.9935 24.5933 82.4469 24.34C82.9002 24.0733 83.2602 23.7 83.5269 23.22C83.7935 22.7267 83.9269 22.14 83.9269 21.46ZM92.7416 18.22V23.58C92.7416 23.9533 92.8282 24.2267 93.0016 24.4C93.1882 24.56 93.4949 24.64 93.9216 24.64H95.2216V27H93.4616C91.1016 27 89.9216 25.8533 89.9216 23.56V18.22H88.6016V15.92H89.9216V13.18H92.7416V15.92H95.2216V18.22H92.7416ZM104.801 24.78H109.401V27H102.001V13.04H104.801V24.78ZM110.461 21.42C110.461 20.3 110.681 19.3067 111.121 18.44C111.574 17.5733 112.181 16.9067 112.941 16.44C113.714 15.9733 114.574 15.74 115.521 15.74C116.347 15.74 117.067 15.9067 117.681 16.24C118.307 16.5733 118.807 16.9933 119.181 17.5V15.92H122.001V27H119.181V25.38C118.821 25.9 118.321 26.3333 117.681 26.68C117.054 27.0133 116.327 27.18 115.501 27.18C114.567 27.18 113.714 26.94 112.941 26.46C112.181 25.98 111.574 25.3067 111.121 24.44C110.681 23.56 110.461 22.5533 110.461 21.42ZM119.181 21.46C119.181 20.78 119.047 20.2 118.781 19.72C118.514 19.2267 118.154 18.8533 117.701 18.6C117.247 18.3333 116.761 18.2 116.241 18.2C115.721 18.2 115.241 18.3267 114.801 18.58C114.361 18.8333 114.001 19.2067 113.721 19.7C113.454 20.18 113.321 20.7533 113.321 21.42C113.321 22.0867 113.454 22.6733 113.721 23.18C114.001 23.6733 114.361 24.0533 114.801 24.32C115.254 24.5867 115.734 24.72 116.241 24.72C116.761 24.72 117.247 24.5933 117.701 24.34C118.154 24.0733 118.514 23.7 118.781 23.22C119.047 22.7267 119.181 22.14 119.181 21.46ZM127.535 17.52C127.895 17.0133 128.389 16.5933 129.015 16.26C129.655 15.9133 130.382 15.74 131.195 15.74C132.142 15.74 132.995 15.9733 133.755 16.44C134.529 16.9067 135.135 17.5733 135.575 18.44C136.029 19.2933 136.255 20.2867 136.255 21.42C136.255 22.5533 136.029 23.56 135.575 24.44C135.135 25.3067 134.529 25.98 133.755 26.46C132.995 26.94 132.142 27.18 131.195 27.18C130.382 27.18 129.662 27.0133 129.035 26.68C128.422 26.3467 127.922 25.9267 127.535 25.42V32.28H124.735V15.92H127.535V17.52ZM133.395 21.42C133.395 20.7533 133.255 20.18 132.975 19.7C132.709 19.2067 132.349 18.8333 131.895 18.58C131.455 18.3267 130.975 18.2 130.455 18.2C129.949 18.2 129.469 18.3333 129.015 18.6C128.575 18.8533 128.215 19.2267 127.935 19.72C127.669 20.2133 127.535 20.7933 127.535 21.46C127.535 22.1267 127.669 22.7067 127.935 23.2C128.215 23.6933 128.575 24.0733 129.015 24.34C129.469 24.5933 129.949 24.72 130.455 24.72C130.975 24.72 131.455 24.5867 131.895 24.32C132.349 24.0533 132.709 23.6733 132.975 23.18C133.255 22.6867 133.395 22.1 133.395 21.42ZM143.21 27.18C142.143 27.18 141.183 26.9467 140.33 26.48C139.477 26 138.803 25.3267 138.31 24.46C137.83 23.5933 137.59 22.5933 137.59 21.46C137.59 20.3267 137.837 19.3267 138.33 18.46C138.837 17.5933 139.523 16.9267 140.39 16.46C141.257 15.98 142.223 15.74 143.29 15.74C144.357 15.74 145.323 15.98 146.19 16.46C147.057 16.9267 147.737 17.5933 148.23 18.46C148.737 19.3267 148.99 20.3267 148.99 21.46C148.99 22.5933 148.73 23.5933 148.21 24.46C147.703 25.3267 147.01 26 146.13 26.48C145.263 26.9467 144.29 27.18 143.21 27.18ZM143.21 24.74C143.717 24.74 144.19 24.62 144.63 24.38C145.083 24.1267 145.443 23.7533 145.71 23.26C145.977 22.7667 146.11 22.1667 146.11 21.46C146.11 20.4067 145.83 19.6 145.27 19.04C144.723 18.4667 144.05 18.18 143.25 18.18C142.45 18.18 141.777 18.4667 141.23 19.04C140.697 19.6 140.43 20.4067 140.43 21.46C140.43 22.5133 140.69 23.3267 141.21 23.9C141.743 24.46 142.41 24.74 143.21 24.74ZM153.844 17.64C154.204 17.0533 154.671 16.5933 155.244 16.26C155.831 15.9267 156.497 15.76 157.244 15.76V18.7H156.504C155.624 18.7 154.957 18.9067 154.504 19.32C154.064 19.7333 153.844 20.4533 153.844 21.48V27H151.044V15.92H153.844V17.64ZM158.41 21.42C158.41 20.3 158.63 19.3067 159.07 18.44C159.523 17.5733 160.13 16.9067 160.89 16.44C161.663 15.9733 162.523 15.74 163.47 15.74C164.297 15.74 165.017 15.9067 165.63 16.24C166.257 16.5733 166.757 16.9933 167.13 17.5V15.92H169.95V27H167.13V25.38C166.77 25.9 166.27 26.3333 165.63 26.68C165.003 27.0133 164.277 27.18 163.45 27.18C162.517 27.18 161.663 26.94 160.89 26.46C160.13 25.98 159.523 25.3067 159.07 24.44C158.63 23.56 158.41 22.5533 158.41 21.42ZM167.13 21.46C167.13 20.78 166.997 20.2 166.73 19.72C166.463 19.2267 166.103 18.8533 165.65 18.6C165.197 18.3333 164.71 18.2 164.19 18.2C163.67 18.2 163.19 18.3267 162.75 18.58C162.31 18.8333 161.95 19.2067 161.67 19.7C161.403 20.18 161.27 20.7533 161.27 21.42C161.27 22.0867 161.403 22.6733 161.67 23.18C161.95 23.6733 162.31 24.0533 162.75 24.32C163.203 24.5867 163.683 24.72 164.19 24.72C164.71 24.72 165.197 24.5933 165.65 24.34C166.103 24.0733 166.463 23.7 166.73 23.22C166.997 22.7267 167.13 22.14 167.13 21.46ZM178.825 15.76C180.145 15.76 181.211 16.18 182.025 17.02C182.838 17.8467 183.245 19.0067 183.245 20.5V27H180.445V20.88C180.445 20 180.225 19.3267 179.785 18.86C179.345 18.38 178.745 18.14 177.985 18.14C177.211 18.14 176.598 18.38 176.145 18.86C175.705 19.3267 175.485 20 175.485 20.88V27H172.685V15.92H175.485V17.3C175.858 16.82 176.331 16.4467 176.905 16.18C177.491 15.9 178.131 15.76 178.825 15.76Z" fill="white"/>
</g>
<path d="M23.5 29.8333H35.125M29.3125 8.52083C29.8264 8.00697 30.5233 7.71829 31.25 7.71829C31.6098 7.71829 31.9661 7.78917 32.2986 7.92687C32.631 8.06457 32.9331 8.26639 33.1875 8.52083C33.4419 8.77527 33.6438 9.07733 33.7815 9.40976C33.9192 9.7422 33.99 10.0985 33.99 10.4583C33.99 10.8182 33.9192 11.1745 33.7815 11.5069C33.6438 11.8393 33.4419 12.1414 33.1875 12.3958L17.0417 28.5417L11.875 29.8333L13.1667 24.6667L29.3125 8.52083Z" stroke="white" stroke-width="1.5" stroke-linecap="round" stroke-linejoin="round"/>
<defs>
<filter id="filter0_i" x="0" y="-4" width="194" height="44" filterUnits="userSpaceOnUse" color-interpolation-filters="sRGB">
<feFlood flood-opacity="0" result="BackgroundImageFix"/>
<feBlend mode="normal" in="SourceGraphic" in2="BackgroundImageFix" result="shape"/>
<feColorMatrix in="SourceAlpha" type="matrix" values="0 0 0 0 0 0 0 0 0 0 0 0 0 0 0 0 0 0 127 0" result="hardAlpha"/>
<feOffset dy="-25"/>
<feGaussianBlur stdDeviation="2"/>
<feComposite in2="hardAlpha" operator="arithmetic" k2="-1" k3="1"/>
<feColorMatrix type="matrix" values="0 0 0 0 0 0 0 0 0 0 0 0 0 0 0 0 0 0 0.25 0"/>
<feBlend mode="normal" in2="shape" result="effect1_innerShadow"/>
</filter>
<filter id="filter1_i" x="49.8527" y="9.04001" width="133.392" height="23.24" filterUnits="userSpaceOnUse" color-interpolation-filters="sRGB">
<feFlood flood-opacity="0" result="BackgroundImageFix"/>
<feBlend mode="normal" in="SourceGraphic" in2="BackgroundImageFix" result="shape"/>
<feColorMatrix in="SourceAlpha" type="matrix" values="0 0 0 0 0 0 0 0 0 0 0 0 0 0 0 0 0 0 127 0" result="hardAlpha"/>
<feOffset dy="-4"/>
<feGaussianBlur stdDeviation="2"/>
<feComposite in2="hardAlpha" operator="arithmetic" k2="-1" k3="1"/>
<feColorMatrix type="matrix" values="0 0 0 0 0 0 0 0 0 0 0 0 0 0 0 0 0 0 0.25 0"/>
<feBlend mode="normal" in2="shape" result="effect1_innerShadow"/>
</filter>
</defs>
</svg>
