<svg width="194" height="40" viewBox="0 0 194 40" fill="none" xmlns="http://www.w3.org/2000/svg">
<g filter="url(#filter0_i)">
<rect width="194" height="40" rx="10" fill="#249945" fill-opacity="0.99"/>
</g>
<rect x="0.5" y="0.5" width="193" height="39" rx="9.5" stroke="white"/>
<g filter="url(#filter1_i)">
<path d="M58.5051 19.84C59.2917 19.9867 59.9384 20.38 60.4451 21.02C60.9517 21.66 61.2051 22.3933 61.2051 23.22C61.2051 23.9667 61.0184 24.6267 60.6451 25.2C60.2851 25.76 59.7584 26.2 59.0651 26.52C58.3717 26.84 57.5517 27 56.6051 27H50.5851V13.04H56.3451C57.2917 13.04 58.1051 13.1933 58.7851 13.5C59.4784 13.8067 59.9984 14.2333 60.3451 14.78C60.7051 15.3267 60.8851 15.9467 60.8851 16.64C60.8851 17.4533 60.6651 18.1333 60.2251 18.68C59.7984 19.2267 59.2251 19.6133 58.5051 19.84ZM53.3851 18.8H55.9451C56.6117 18.8 57.1251 18.6533 57.4851 18.36C57.8451 18.0533 58.0251 17.62 58.0251 17.06C58.0251 16.5 57.8451 16.0667 57.4851 15.76C57.1251 15.4533 56.6117 15.3 55.9451 15.3H53.3851V18.8ZM56.2051 24.72C56.8851 24.72 57.4117 24.56 57.7851 24.24C58.1717 23.92 58.3651 23.4667 58.3651 22.88C58.3651 22.28 58.1651 21.8133 57.7651 21.48C57.3651 21.1333 56.8251 20.96 56.1451 20.96H53.3851V24.72H56.2051ZM73.8966 15.92V27H71.0766V25.6C70.7166 26.08 70.2433 26.46 69.6566 26.74C69.0833 27.0067 68.4566 27.14 67.7766 27.14C66.91 27.14 66.1433 26.96 65.4766 26.6C64.81 26.2267 64.2833 25.6867 63.8966 24.98C63.5233 24.26 63.3366 23.4067 63.3366 22.42V15.92H66.1366V22.02C66.1366 22.9 66.3566 23.58 66.7966 24.06C67.2366 24.5267 67.8366 24.76 68.5966 24.76C69.37 24.76 69.9766 24.5267 70.4166 24.06C70.8566 23.58 71.0766 22.9 71.0766 22.02V15.92H73.8966ZM75.9393 21.42C75.9393 20.3 76.1593 19.3067 76.5993 18.44C77.0526 17.5733 77.6593 16.9067 78.4193 16.44C79.1926 15.9733 80.0526 15.74 80.9993 15.74C81.826 15.74 82.546 15.9067 83.1593 16.24C83.786 16.5733 84.286 16.9933 84.6593 17.5V15.92H87.4793V27H84.6593V25.38C84.2993 25.9 83.7993 26.3333 83.1593 26.68C82.5326 27.0133 81.806 27.18 80.9793 27.18C80.046 27.18 79.1926 26.94 78.4193 26.46C77.6593 25.98 77.0526 25.3067 76.5993 24.44C76.1593 23.56 75.9393 22.5533 75.9393 21.42ZM84.6593 21.46C84.6593 20.78 84.526 20.2 84.2593 19.72C83.9926 19.2267 83.6326 18.8533 83.1793 18.6C82.726 18.3333 82.2393 18.2 81.7193 18.2C81.1993 18.2 80.7193 18.3267 80.2793 18.58C79.8393 18.8333 79.4793 19.2067 79.1993 19.7C78.9326 20.18 78.7993 20.7533 78.7993 21.42C78.7993 22.0867 78.9326 22.6733 79.1993 23.18C79.4793 23.6733 79.8393 24.0533 80.2793 24.32C80.7326 24.5867 81.2126 24.72 81.7193 24.72C82.2393 24.72 82.726 24.5933 83.1793 24.34C83.6326 24.0733 83.9926 23.7 84.2593 23.22C84.526 22.7267 84.6593 22.14 84.6593 21.46ZM93.474 18.22V23.58C93.474 23.9533 93.5607 24.2267 93.734 24.4C93.9207 24.56 94.2273 24.64 94.654 24.64H95.954V27H94.194C91.834 27 90.654 25.8533 90.654 23.56V18.22H89.334V15.92H90.654V13.18H93.474V15.92H95.954V18.22H93.474ZM111.294 24.34H105.734L104.814 27H101.874L106.894 13.02H110.154L115.174 27H112.214L111.294 24.34ZM110.534 22.1L108.514 16.26L106.494 22.1H110.534ZM121.29 27.18C120.383 27.18 119.57 27.02 118.85 26.7C118.13 26.3667 117.557 25.92 117.13 25.36C116.717 24.8 116.49 24.18 116.45 23.5H119.27C119.323 23.9267 119.53 24.28 119.89 24.56C120.263 24.84 120.723 24.98 121.27 24.98C121.803 24.98 122.217 24.8733 122.51 24.66C122.817 24.4467 122.97 24.1733 122.97 23.84C122.97 23.48 122.783 23.2133 122.41 23.04C122.05 22.8533 121.47 22.6533 120.67 22.44C119.843 22.24 119.163 22.0333 118.63 21.82C118.11 21.6067 117.657 21.28 117.27 20.84C116.897 20.4 116.71 19.8067 116.71 19.06C116.71 18.4467 116.883 17.8867 117.23 17.38C117.59 16.8733 118.097 16.4733 118.75 16.18C119.417 15.8867 120.197 15.74 121.09 15.74C122.41 15.74 123.463 16.0733 124.25 16.74C125.037 17.3933 125.47 18.28 125.55 19.4H122.87C122.83 18.96 122.643 18.6133 122.31 18.36C121.99 18.0933 121.557 17.96 121.01 17.96C120.503 17.96 120.11 18.0533 119.83 18.24C119.563 18.4267 119.43 18.6867 119.43 19.02C119.43 19.3933 119.617 19.68 119.99 19.88C120.363 20.0667 120.943 20.26 121.73 20.46C122.53 20.66 123.19 20.8667 123.71 21.08C124.23 21.2933 124.677 21.6267 125.05 22.08C125.437 22.52 125.637 23.1067 125.65 23.84C125.65 24.48 125.47 25.0533 125.11 25.56C124.763 26.0667 124.257 26.4667 123.59 26.76C122.937 27.04 122.17 27.18 121.29 27.18ZM130.748 17.52C131.108 17.0133 131.602 16.5933 132.228 16.26C132.868 15.9133 133.595 15.74 134.408 15.74C135.355 15.74 136.208 15.9733 136.968 16.44C137.742 16.9067 138.348 17.5733 138.788 18.44C139.242 19.2933 139.468 20.2867 139.468 21.42C139.468 22.5533 139.242 23.56 138.788 24.44C138.348 25.3067 137.742 25.98 136.968 26.46C136.208 26.94 135.355 27.18 134.408 27.18C133.595 27.18 132.875 27.0133 132.248 26.68C131.635 26.3467 131.135 25.9267 130.748 25.42V32.28H127.948V15.92H130.748V17.52ZM136.608 21.42C136.608 20.7533 136.468 20.18 136.188 19.7C135.922 19.2067 135.562 18.8333 135.108 18.58C134.668 18.3267 134.188 18.2 133.668 18.2C133.162 18.2 132.682 18.3333 132.228 18.6C131.788 18.8533 131.428 19.2267 131.148 19.72C130.882 20.2133 130.748 20.7933 130.748 21.46C130.748 22.1267 130.882 22.7067 131.148 23.2C131.428 23.6933 131.788 24.0733 132.228 24.34C132.682 24.5933 133.162 24.72 133.668 24.72C134.188 24.72 134.668 24.5867 135.108 24.32C135.562 24.0533 135.922 23.6733 136.188 23.18C136.468 22.6867 136.608 22.1 136.608 21.42ZM142.923 14.6C142.43 14.6 142.016 14.4467 141.683 14.14C141.363 13.82 141.203 13.4267 141.203 12.96C141.203 12.4933 141.363 12.1067 141.683 11.8C142.016 11.48 142.43 11.32 142.923 11.32C143.416 11.32 143.823 11.48 144.143 11.8C144.476 12.1067 144.643 12.4933 144.643 12.96C144.643 13.4267 144.476 13.82 144.143 14.14C143.823 14.4467 143.416 14.6 142.923 14.6ZM144.303 15.92V27H141.503V15.92H144.303ZM149.869 17.64C150.229 17.0533 150.696 16.5933 151.269 16.26C151.856 15.9267 152.523 15.76 153.269 15.76V18.7H152.529C151.649 18.7 150.983 18.9067 150.529 19.32C150.089 19.7333 149.869 20.4533 149.869 21.48V27H147.069V15.92H149.869V17.64ZM154.435 21.42C154.435 20.3 154.655 19.3067 155.095 18.44C155.549 17.5733 156.155 16.9067 156.915 16.44C157.689 15.9733 158.549 15.74 159.495 15.74C160.322 15.74 161.042 15.9067 161.655 16.24C162.282 16.5733 162.782 16.9933 163.155 17.5V15.92H165.975V27H163.155V25.38C162.795 25.9 162.295 26.3333 161.655 26.68C161.029 27.0133 160.302 27.18 159.475 27.18C158.542 27.18 157.689 26.94 156.915 26.46C156.155 25.98 155.549 25.3067 155.095 24.44C154.655 23.56 154.435 22.5533 154.435 21.42ZM163.155 21.46C163.155 20.78 163.022 20.2 162.755 19.72C162.489 19.2267 162.129 18.8533 161.675 18.6C161.222 18.3333 160.735 18.2 160.215 18.2C159.695 18.2 159.215 18.3267 158.775 18.58C158.335 18.8333 157.975 19.2067 157.695 19.7C157.429 20.18 157.295 20.7533 157.295 21.42C157.295 22.0867 157.429 22.6733 157.695 23.18C157.975 23.6733 158.335 24.0533 158.775 24.32C159.229 24.5867 159.709 24.72 160.215 24.72C160.735 24.72 161.222 24.5933 161.675 24.34C162.129 24.0733 162.489 23.7 162.755 23.22C163.022 22.7267 163.155 22.14 163.155 21.46ZM172.95 27.18C172.043 27.18 171.23 27.02 170.51 26.7C169.79 26.3667 169.217 25.92 168.79 25.36C168.377 24.8 168.15 24.18 168.11 23.5H170.93C170.983 23.9267 171.19 24.28 171.55 24.56C171.923 24.84 172.383 24.98 172.93 24.98C173.463 24.98 173.877 24.8733 174.17 24.66C174.477 24.4467 174.63 24.1733 174.63 23.84C174.63 23.48 174.443 23.2133 174.07 23.04C173.71 22.8533 173.13 22.6533 172.33 22.44C171.503 22.24 170.823 22.0333 170.29 21.82C169.77 21.6067 169.317 21.28 168.93 20.84C168.557 20.4 168.37 19.8067 168.37 19.06C168.37 18.4467 168.543 17.8867 168.89 17.38C169.25 16.8733 169.757 16.4733 170.41 16.18C171.077 15.8867 171.857 15.74 172.75 15.74C174.07 15.74 175.123 16.0733 175.91 16.74C176.697 17.3933 177.13 18.28 177.21 19.4H174.53C174.49 18.96 174.303 18.6133 173.97 18.36C173.65 18.0933 173.217 17.96 172.67 17.96C172.163 17.96 171.77 18.0533 171.49 18.24C171.223 18.4267 171.09 18.6867 171.09 19.02C171.09 19.3933 171.277 19.68 171.65 19.88C172.023 20.0667 172.603 20.26 173.39 20.46C174.19 20.66 174.85 20.8667 175.37 21.08C175.89 21.2933 176.337 21.6267 176.71 22.08C177.097 22.52 177.297 23.1067 177.31 23.84C177.31 24.48 177.13 25.0533 176.77 25.56C176.423 26.0667 175.917 26.4667 175.25 26.76C174.597 27.04 173.83 27.18 172.95 27.18ZM181.029 14.6C180.535 14.6 180.122 14.4467 179.789 14.14C179.469 13.82 179.309 13.4267 179.309 12.96C179.309 12.4933 179.469 12.1067 179.789 11.8C180.122 11.48 180.535 11.32 181.029 11.32C181.522 11.32 181.929 11.48 182.249 11.8C182.582 12.1067 182.749 12.4933 182.749 12.96C182.749 13.4267 182.582 13.82 182.249 14.14C181.929 14.4467 181.522 14.6 181.029 14.6ZM182.409 15.92V27H179.609V15.92H182.409Z" fill="white"/>
</g>
<path d="M24 30.6667H36M30 8.66665C30.5304 8.13622 31.2499 7.83823 32 7.83823C32.3714 7.83823 32.7392 7.91139 33.0824 8.05353C33.4256 8.19567 33.7374 8.40401 34 8.66665C34.2626 8.9293 34.471 9.2411 34.6131 9.58426C34.7553 9.92742 34.8284 10.2952 34.8284 10.6667C34.8284 11.0381 34.7553 11.4059 34.6131 11.749C34.471 12.0922 34.2626 12.404 34 12.6667L17.3333 29.3333L12 30.6667L13.3333 25.3333L30 8.66665Z" stroke="white" stroke-width="1.5" stroke-linecap="round" stroke-linejoin="round"/>
<defs>
<filter id="filter0_i" x="0" y="-4" width="194" height="44" filterUnits="userSpaceOnUse" color-interpolation-filters="sRGB">
<feFlood flood-opacity="0" result="BackgroundImageFix"/>
<feBlend mode="normal" in="SourceGraphic" in2="BackgroundImageFix" result="shape"/>
<feColorMatrix in="SourceAlpha" type="matrix" values="0 0 0 0 0 0 0 0 0 0 0 0 0 0 0 0 0 0 127 0" result="hardAlpha"/>
<feOffset dy="-25"/>
<feGaussianBlur stdDeviation="2"/>
<feComposite in2="hardAlpha" operator="arithmetic" k2="-1" k3="1"/>
<feColorMatrix type="matrix" values="0 0 0 0 0 0 0 0 0 0 0 0 0 0 0 0 0 0 0.25 0"/>
<feBlend mode="normal" in2="shape" result="effect1_innerShadow"/>
</filter>
<filter id="filter1_i" x="50.5851" y="7.32001" width="132.163" height="24.96" filterUnits="userSpaceOnUse" color-interpolation-filters="sRGB">
<feFlood flood-opacity="0" result="BackgroundImageFix"/>
<feBlend mode="normal" in="SourceGraphic" in2="BackgroundImageFix" result="shape"/>
<feColorMatrix in="SourceAlpha" type="matrix" values="0 0 0 0 0 0 0 0 0 0 0 0 0 0 0 0 0 0 127 0" result="hardAlpha"/>
<feOffset dy="-4"/>
<feGaussianBlur stdDeviation="2"/>
<feComposite in2="hardAlpha" operator="arithmetic" k2="-1" k3="1"/>
<feColorMatrix type="matrix" values="0 0 0 0 0 0 0 0 0 0 0 0 0 0 0 0 0 0 0.25 0"/>
<feBlend mode="normal" in2="shape" result="effect1_innerShadow"/>
</filter>
</defs>
</svg>
