<svg width="251" height="200" viewBox="0 0 251 200" fill="none" xmlns="http://www.w3.org/2000/svg">
<g clip-path="url(#clip0)">
<path d="M111.92 165.034C123.668 165.034 133.192 162.934 133.192 160.344C133.192 157.754 123.668 155.654 111.92 155.654C100.171 155.654 90.6473 157.754 90.6473 160.344C90.6473 162.934 100.171 165.034 111.92 165.034Z" fill="black"/>
<path d="M111.92 160.344L99.9706 197.643" stroke="black" stroke-width="4" stroke-miterlimit="10" stroke-linecap="round"/>
<path d="M111.92 160.344L123.869 197.643" stroke="black" stroke-width="4" stroke-miterlimit="10" stroke-linecap="round"/>
<path d="M103.894 185.396L117.215 176.878" stroke="black" stroke-width="2" stroke-miterlimit="10" stroke-linecap="round"/>
<path d="M106.57 176.878L119.895 185.396" stroke="black" stroke-width="2" stroke-miterlimit="10" stroke-linecap="round"/>
<path d="M132.855 119.969C132.801 121.623 132.824 127.415 132.551 129.893" stroke="#1F161E" stroke-miterlimit="10" stroke-linecap="round"/>
<path d="M205.398 114.973H207.421C207.633 114.973 207.837 114.888 207.987 114.738C208.137 114.588 208.222 114.385 208.223 114.173V101.775C208.223 101.67 208.202 101.566 208.162 101.469C208.121 101.372 208.062 101.284 207.987 101.21L205.432 98.662C205.358 98.5875 205.27 98.5283 205.172 98.4879C205.075 98.4475 204.971 98.4267 204.866 98.4266H197.319C197.106 98.4275 196.903 98.5121 196.753 98.662C196.602 98.8118 196.517 99.0148 196.517 99.2267V100.424" fill="#FFD059"/>
<path d="M29.6821 144.557C36.0864 145.767 34.9437 183.89 22.6509 181.584C11.0423 179.385 21.8689 143.075 29.6821 144.557Z" fill="black"/>
<path d="M1.56399 149.264C6.66043 146.386 27.9934 173.159 18.2353 178.666C9.01653 183.89 -4.64141 152.773 1.56399 149.264Z" fill="#FFD059"/>
<path d="M27.535 200H14.6658C14.1474 200 13.6473 199.809 13.2611 199.464C12.875 199.119 12.6298 198.645 12.5726 198.131L10.9479 183.581C10.9127 183.286 10.9406 182.987 11.0296 182.703C11.1187 182.419 11.267 182.158 11.4647 181.936C11.6625 181.713 11.9052 181.535 12.1769 181.413C12.4486 181.291 12.7431 181.228 13.0411 181.228H29.0922C29.3878 181.228 29.68 181.29 29.9499 181.41C30.2198 181.531 30.4614 181.706 30.6588 181.925C30.8562 182.145 31.0051 182.403 31.0958 182.684C31.1866 182.964 31.2171 183.261 31.1854 183.554L29.6315 198.104C29.5797 198.623 29.3366 199.104 28.9492 199.454C28.5619 199.805 28.0579 199.999 27.535 200Z" fill="#969696"/>
<path d="M33.2988 129.711C38.1762 131.123 34.4381 160.549 25.098 157.84C16.2803 155.285 27.3631 127.99 33.2988 129.711Z" fill="#AB8DE5"/>
<path d="M41.3412 153.123C44.7119 156.021 31 178.189 24.5216 172.622C18.4038 167.387 37.2256 149.6 41.3412 153.123Z" fill="#FFD059"/>
<path d="M21.1341 132.771C28.4349 132.771 35.119 179.264 21.1341 179.264C7.9278 179.264 12.2456 132.771 21.1341 132.771Z" fill="#2563EB"/>
<path d="M33.946 178.081H8.26151C7.50757 178.081 6.89639 178.691 6.89639 179.443V181.924C6.89639 182.676 7.50757 183.285 8.26151 183.285H33.946C34.6999 183.285 35.3111 182.676 35.3111 181.924V179.443C35.3111 178.691 34.6999 178.081 33.946 178.081Z" fill="#646D74"/>
<path d="M202.001 100.424H194.585C194.466 100.424 194.349 100.447 194.239 100.492C194.129 100.538 194.029 100.605 193.945 100.689C193.861 100.773 193.795 100.872 193.75 100.982C193.704 101.092 193.681 101.209 193.682 101.328V116.053C193.682 116.292 193.777 116.521 193.946 116.691C194.116 116.86 194.345 116.956 194.585 116.957H204.492C204.732 116.956 204.961 116.86 205.131 116.691C205.3 116.521 205.395 116.292 205.395 116.053V103.816C205.395 103.697 205.372 103.58 205.327 103.47C205.282 103.361 205.216 103.261 205.132 103.177L202.638 100.689C202.469 100.52 202.24 100.424 202.001 100.424Z" fill="#646D74"/>
<path d="M205.398 103.463H202.88C202.746 103.463 202.618 103.41 202.523 103.315C202.428 103.22 202.375 103.092 202.375 102.958V100.424" fill="#969696"/>
<path d="M208.233 101.469H205.715C205.58 101.468 205.451 101.414 205.356 101.319C205.261 101.224 205.207 101.096 205.206 100.961V98.4266" fill="#64CCC4"/>
<path d="M193.692 83.5909H176.313C175.749 83.5909 175.291 84.047 175.291 84.6096V90.2708C175.291 90.8334 175.749 91.2894 176.313 91.2894H193.692C194.256 91.2894 194.713 90.8334 194.713 90.2708V84.6096C194.713 84.047 194.256 83.5909 193.692 83.5909Z" fill="#2563EB"/>
<path d="M184.999 96.5676L187.338 89.5011H182.66L184.999 96.5676Z" fill="#2563EB"/>
<path d="M180.364 85.6417L178.403 89.0271H182.323L180.364 85.6417Z" fill="#D3E1FE"/>
<path d="M189.637 89.0271L191.599 85.6417H187.675L189.637 89.0271Z" fill="#D3E1FE"/>
<path d="M184.999 88.8052C185.813 88.8052 186.472 88.1474 186.472 87.3361C186.472 86.5247 185.813 85.8669 184.999 85.8669C184.186 85.8669 183.526 86.5247 183.526 87.3361C183.526 88.1474 184.186 88.8052 184.999 88.8052Z" fill="#D3E1FE"/>
<path d="M183.486 67.2762H172.079C171.586 67.2762 171.186 67.6751 171.186 68.1671V75.0454C171.186 75.5374 171.586 75.9362 172.079 75.9362H183.486C183.979 75.9362 184.379 75.5374 184.379 75.0454V68.1671C184.379 67.6751 183.979 67.2762 183.486 67.2762Z" fill="#646D74"/>
<path d="M171.601 67.5486L177.782 71.6063" stroke="#969696" stroke-width="0.82" stroke-linecap="round" stroke-linejoin="round"/>
<path d="M184.379 67.2762L177.782 71.6062" stroke="#969696" stroke-width="0.82" stroke-linecap="round" stroke-linejoin="round"/>
<path d="M184.379 69.1588C185.421 69.1588 186.266 68.3159 186.266 67.2762C186.266 66.2364 185.421 65.3936 184.379 65.3936C183.336 65.3936 182.491 66.2364 182.491 67.2762C182.491 68.3159 183.336 69.1588 184.379 69.1588Z" fill="#FFD059"/>
<path d="M186.431 72.5482H185.768V68.1532L184.439 68.6416V68.0427L186.328 67.3334H186.431V72.5482Z" fill="#D3E1FE"/>
<path d="M250.585 72.5576H201.374C201.145 72.5576 200.959 72.7427 200.959 72.9711V73.2266C200.959 73.455 201.145 73.6401 201.374 73.6401H250.585C250.814 73.6401 251 73.455 251 73.2266V72.9711C251 72.7427 250.814 72.5576 250.585 72.5576Z" fill="#646D74"/>
<path d="M222.161 51.0623H219.171C218.694 51.0623 218.308 51.4476 218.308 51.9229V71.697C218.308 72.1723 218.694 72.5576 219.171 72.5576H222.161C222.637 72.5576 223.023 72.1723 223.023 71.697V51.9229C223.023 51.4476 222.637 51.0623 222.161 51.0623Z" fill="#969696"/>
<path d="M224.665 56.1016H223.741C223.345 56.1016 223.023 56.4222 223.023 56.8176V71.8415C223.023 72.237 223.345 72.5576 223.741 72.5576H224.665C225.062 72.5576 225.383 72.237 225.383 71.8415V56.8176C225.383 56.4222 225.062 56.1016 224.665 56.1016Z" fill="#646D74"/>
<path d="M227.048 56.1016H226.077C225.694 56.1016 225.383 56.4116 225.383 56.7941V71.865C225.383 72.2475 225.694 72.5576 226.077 72.5576H227.048C227.432 72.5576 227.742 72.2475 227.742 71.865V56.7941C227.742 56.4116 227.432 56.1016 227.048 56.1016Z" fill="#969696"/>
<path d="M228.759 57.2794L227.963 57.6441C227.59 57.8145 227.427 58.2536 227.598 58.6248L233.863 72.2357C234.034 72.6069 234.474 72.7697 234.847 72.5992L235.643 72.2346C236.015 72.0641 236.179 71.625 236.008 71.2538L229.742 57.6429C229.571 57.2717 229.131 57.1089 228.759 57.2794Z" fill="#646D74"/>
<path d="M220.664 67.1182C221.392 67.1182 221.982 66.5297 221.982 65.8037C221.982 65.0778 221.392 64.4893 220.664 64.4893C219.936 64.4893 219.346 65.0778 219.346 65.8037C219.346 66.5297 219.936 67.1182 220.664 67.1182Z" fill="#646D74"/>
<path d="M221.857 67.9049H219.471C219.296 67.9049 219.154 68.0464 219.154 68.2209C219.154 68.3954 219.296 68.5369 219.471 68.5369H221.857C222.032 68.5369 222.174 68.3954 222.174 68.2209C222.174 68.0464 222.032 67.9049 221.857 67.9049Z" fill="#646D74"/>
<path d="M221.857 69.5219H219.471C219.296 69.5219 219.154 69.6633 219.154 69.8379C219.154 70.0124 219.296 70.1539 219.471 70.1539H221.857C222.032 70.1539 222.174 70.0124 222.174 69.8379C222.174 69.6633 222.032 69.5219 221.857 69.5219Z" fill="#646D74"/>
<path d="M197.71 101.943H195.323C195.148 101.943 195.006 102.084 195.006 102.259C195.006 102.434 195.148 102.575 195.323 102.575H197.71C197.885 102.575 198.027 102.434 198.027 102.259C198.027 102.084 197.885 101.943 197.71 101.943Z" fill="#969696"/>
<path d="M197.71 103.463H195.323C195.148 103.463 195.006 103.604 195.006 103.779C195.006 103.953 195.148 104.095 195.323 104.095H197.71C197.885 104.095 198.027 103.953 198.027 103.779C198.027 103.604 197.885 103.463 197.71 103.463Z" fill="#969696"/>
<path d="M203.898 106.061H195.185C195.01 106.061 194.868 106.203 194.868 106.377C194.868 106.552 195.01 106.693 195.185 106.693H203.898C204.073 106.693 204.215 106.552 204.215 106.377C204.215 106.203 204.073 106.061 203.898 106.061Z" fill="#969696"/>
<path d="M203.898 107.554H195.185C195.01 107.554 194.868 107.695 194.868 107.87C194.868 108.045 195.01 108.186 195.185 108.186H203.898C204.073 108.186 204.215 108.045 204.215 107.87C204.215 107.695 204.073 107.554 203.898 107.554Z" fill="#969696"/>
<path d="M203.898 109.047H195.185C195.01 109.047 194.868 109.188 194.868 109.363C194.868 109.537 195.01 109.678 195.185 109.678H203.898C204.073 109.678 204.215 109.537 204.215 109.363C204.215 109.188 204.073 109.047 203.898 109.047Z" fill="#969696"/>
<path d="M224.449 58.586C224.449 58.4505 224.339 58.3406 224.203 58.3406C224.067 58.3406 223.957 58.4505 223.957 58.586V70.0699C223.957 70.2054 224.067 70.3153 224.203 70.3153C224.339 70.3153 224.449 70.2054 224.449 70.0699V58.586Z" fill="#969696"/>
<path d="M214.098 73.0989H211.988C211.524 73.0989 211.149 73.4737 211.149 73.936C211.149 74.3983 211.524 74.773 211.988 74.773H214.098C214.561 74.773 214.937 74.3983 214.937 73.936C214.937 73.4737 214.561 73.0989 214.098 73.0989Z" fill="#646D74"/>
<path d="M239.971 73.0989H237.861C237.398 73.0989 237.022 73.4737 237.022 73.936C237.022 74.3983 237.398 74.773 237.861 74.773H239.971C240.435 74.773 240.81 74.3983 240.81 73.936C240.81 73.4737 240.435 73.0989 239.971 73.0989Z" fill="#646D74"/>
<path d="M160.326 74.736H148.019C145.786 74.736 143.975 76.5421 143.975 78.7701V84.7575C143.975 86.9855 145.786 88.7916 148.019 88.7916H160.326C162.56 88.7916 164.371 86.9855 164.371 84.7575V78.7701C164.371 76.5421 162.56 74.736 160.326 74.736Z" fill="#646D74"/>
<path d="M151.262 76.9985H148.195V86.5292H151.262V76.9985Z" fill="#AB8DE5"/>
<path d="M155.708 83.3389H152.641V86.5326H155.708V83.3389Z" fill="#AB8DE5"/>
<path d="M160.15 80.6494H157.083V86.5292H160.15V80.6494Z" fill="#AB8DE5"/>
<path d="M163.541 193.196C163.541 193.992 163.073 199.018 164.007 199.482C164.94 199.946 175.204 200.229 175.669 199.761C176.134 199.294 176.414 198.319 176.006 198.04C175.598 197.761 171.624 196.971 171.085 196.598C170.546 196.225 169.801 194.245 170.074 193.196" fill="#1F161E"/>
<path d="M132.855 127.496L138.632 125.429C138.383 114.916 135.919 91.4274 132.42 87.9345C131.598 87.1175 115.331 85.6921 112.429 85.6921C95.1101 85.6921 89.9732 87.6622 88.6687 88.9665C84.6239 93.0007 83.3633 111.692 83.3633 118.238C83.3633 124.783 101.902 128.179 101.902 128.179L123.633 129.668C123.633 129.668 128.399 130.159 132.521 130.401C132.612 129.14 132.855 127.496 132.855 127.496Z" fill="#2563EB"/>
<path d="M150.069 133.591C151.65 133.124 167.37 130.565 170.795 133.927C174.22 137.289 184.999 185.487 184.999 186.596H176.32L164.603 161.447" fill="#1F161E"/>
<path d="M92.8315 129.305C92.4372 131.271 90.0676 133.383 90.0676 144.097C90.0676 158.912 102.236 159.225 106.604 159.225C120.215 159.225 142.235 155.191 143.722 154.451C144.709 156.098 162.887 193.112 162.972 193.939H171.341C171.341 193.939 166.154 138.563 156.793 132.283C153.753 130.266 99.8122 128.108 92.8315 129.305Z" fill="#55B79D"/>
<path d="M141.841 118.473C139.643 118.473 137.83 118.994 132.855 119.969L132.595 129.463C137.314 127.567 138.41 124.931 139.778 124.931C143.196 124.931 144.982 126.689 147.001 126.689C148.41 126.689 150.945 125.587 150.945 124.087C150.945 120.947 144.564 118.473 141.841 118.473Z" fill="#F8CDBA"/>
<path d="M176.812 185.931C176.812 186.731 176.343 191.753 177.277 192.221C178.21 192.688 188.474 192.964 188.939 192.5C189.404 192.036 189.684 191.058 189.276 190.779C188.869 190.499 184.895 189.706 184.355 189.333C183.816 188.96 183.071 186.98 183.344 185.931" fill="#1F161E"/>
<path d="M115.493 87.9278C115.493 89.1952 108.114 89.2321 108.114 87.9278V77.6205H115.493V87.9278Z" fill="#F8CDBA"/>
<path d="M113.089 81.0193C112.415 81.0193 108.114 82.9153 108.114 83.9743V78.3802C109.186 78.3802 113.089 81.0193 113.089 81.0193Z" fill="#1F161E"/>
<path d="M114.515 81.4562C119.448 81.4562 123.447 77.4676 123.447 72.5474C123.447 67.6273 119.448 63.6387 114.515 63.6387C109.582 63.6387 105.583 67.6273 105.583 72.5474C105.583 77.4676 109.582 81.4562 114.515 81.4562Z" fill="#F8CDBA"/>
<path d="M123.734 65.555C122.628 67.3065 120.316 68.1099 117.812 68.1099C115.678 68.1099 112.57 67.4914 110.359 68.7487C109.162 69.421 107.791 70.9507 107.514 74.0133C107.514 74.5377 106.918 76.5716 106.918 77.2271C106.918 77.6743 106.412 77.9667 105.569 77.9667C105.134 77.9667 104.275 77.2641 104.275 76.1917C104.275 74.9512 104.77 74.5108 104.77 73.4586C104.77 72.4063 103.479 71.3944 103.479 68.4697C103.479 64.2573 106.176 61.662 108.084 61.662C109.823 61.662 110.369 62.0654 110.588 62.2369C110.588 58.4078 115.644 56.6597 117.65 56.6597C119.942 56.6597 121.02 57.5976 121.02 58.7911C121.02 60.6938 120.11 62.3108 119.649 62.6739C120.694 61.7361 122.051 61.2196 123.457 61.225C126.083 61.225 126.966 62.9462 126.966 64.1229C126.966 66.6812 123.889 69.0512 122.743 69.0512C122.455 68.4429 122.116 67.8593 121.732 67.3065" fill="#1F161E"/>
<path d="M107.791 75.6236C108.842 75.6236 109.695 74.7732 109.695 73.7241C109.695 72.6751 108.842 71.8247 107.791 71.8247C106.739 71.8247 105.886 72.6751 105.886 73.7241C105.886 74.7732 106.739 75.6236 107.791 75.6236Z" fill="#F8CDBA"/>
<path d="M123.535 74.1813C124.35 74.1813 125.011 73.8381 125.011 73.4148C125.011 72.9915 124.35 72.6483 123.535 72.6483C122.72 72.6483 122.059 72.9915 122.059 73.4148C122.059 73.8381 122.72 74.1813 123.535 74.1813Z" fill="#FA9E9F"/>
<path d="M114.249 74.1813C115.064 74.1813 115.725 73.8381 115.725 73.4148C115.725 72.9915 115.064 72.6483 114.249 72.6483C113.433 72.6483 112.772 72.9915 112.772 73.4148C112.772 73.8381 113.433 74.1813 114.249 74.1813Z" fill="#FA9E9F"/>
<path d="M119.928 71.8247C120.205 72.218 121.614 73.8687 120.127 74.5377" stroke="#1F161E" stroke-miterlimit="10" stroke-linecap="round"/>
<path d="M117.151 76.4641C116.706 76.4641 116.022 75.9128 115.661 75.4186" stroke="#1F161E" stroke-miterlimit="10" stroke-linecap="round"/>
<path d="M128.928 100.39C129.602 101.819 132.855 115.602 132.855 119.969" stroke="#1F161E" stroke-miterlimit="10" stroke-linecap="round"/>
<path d="M83.3633 117.128C83.3633 132.623 83.5082 137.118 89.744 137.118C104.117 137.118 125.844 125.351 129.717 125.351C133.138 125.351 134.924 127.113 136.943 127.113C138.349 127.113 140.884 126.007 140.884 124.511C140.884 121.368 134.503 118.893 131.783 118.893C125.658 118.893 101.218 124.783 100.621 124.783C100.025 124.783 99.0201 124.524 99.0201 123.522C99.0201 121.704 100.213 117.501 100.368 117.135L83.3633 117.128Z" fill="#F8CDBA"/>
<path d="M103.958 103.614C103.547 104.794 100.341 116.987 99.9706 118.473" stroke="#1F161E" stroke-miterlimit="10" stroke-linecap="round"/>
<path d="M225.652 197.925C225.894 198.844 226.838 199.393 227.76 199.152C228.682 198.91 229.232 197.969 228.99 197.049L211.733 131.581C211.49 130.662 210.547 130.112 209.625 130.354C208.703 130.596 208.152 131.537 208.395 132.456L225.652 197.925Z" fill="#969696"/>
<path d="M208.223 132.459C208.466 131.54 207.915 130.598 206.993 130.357C206.071 130.115 205.127 130.664 204.885 131.584L187.628 197.052C187.385 197.971 187.936 198.913 188.858 199.154C189.78 199.396 190.723 198.847 190.966 197.927L208.223 132.459Z" fill="#969696"/>
<path d="M184.41 132.459C184.652 131.539 184.101 130.598 183.18 130.356C182.258 130.115 181.314 130.664 181.072 131.583L163.814 197.052C163.572 197.971 164.123 198.912 165.045 199.154C165.966 199.396 166.91 198.846 167.153 197.927L184.41 132.459Z" fill="#646D74"/>
<path d="M201.539 196.716C201.777 197.638 202.72 198.193 203.644 197.956C204.569 197.718 205.125 196.778 204.887 195.856L187.919 130.193C187.681 129.271 186.738 128.716 185.813 128.954C184.889 129.192 184.332 130.132 184.571 131.054L201.539 196.716Z" fill="#646D74"/>
<path d="M87.1929 132.46C87.4352 131.541 86.8844 130.6 85.9626 130.358C85.0408 130.116 84.0971 130.666 83.8548 131.585L66.5974 197.053C66.355 197.973 66.9059 198.914 67.8277 199.156C68.7494 199.397 69.6932 198.848 69.9355 197.929L87.1929 132.46Z" fill="#969696"/>
<path d="M104.328 197.929C104.571 198.848 105.515 199.397 106.436 199.156C107.358 198.914 107.909 197.973 107.667 197.053L90.4092 131.585C90.1669 130.666 89.2232 130.116 88.3014 130.358C87.3796 130.6 86.8288 131.541 87.0711 132.46L104.328 197.929Z" fill="#969696"/>
<path d="M218.847 127.123H51.942C51.0987 127.123 50.4151 127.805 50.4151 128.646V130.693C50.4151 131.534 51.0987 132.216 51.942 132.216H218.847C219.691 132.216 220.374 131.534 220.374 130.693V128.646C220.374 127.805 219.691 127.123 218.847 127.123Z" fill="#646D74"/>
<path d="M62.528 132.461C62.7704 131.542 62.2196 130.601 61.2978 130.359C60.376 130.117 59.4323 130.667 59.1899 131.586L41.9326 197.054C41.6902 197.974 42.241 198.915 43.1628 199.157C44.0846 199.398 45.0283 198.849 45.2707 197.93L62.528 132.461Z" fill="#646D74"/>
<path d="M79.6635 197.929C79.9059 198.848 80.8496 199.398 81.7714 199.156C82.6932 198.914 83.244 197.973 83.0017 197.054L65.7443 131.585C65.5019 130.666 64.5582 130.117 63.6364 130.358C62.7146 130.6 62.1638 131.541 62.4062 132.461L79.6635 197.929Z" fill="#646D74"/>
<path d="M175.369 127.123H144.187L149.836 107.745C149.977 107.278 150.266 106.868 150.66 106.578C151.054 106.288 151.531 106.133 152.02 106.135H178.48C178.828 106.13 179.172 106.205 179.485 106.356C179.798 106.506 180.072 106.727 180.284 107.002C180.496 107.277 180.641 107.597 180.707 107.937C180.773 108.278 180.758 108.629 180.664 108.962L175.369 127.123Z" fill="black"/>
<path d="M163.605 118.53C164.659 118.53 165.513 117.678 165.513 116.627C165.513 115.577 164.659 114.725 163.605 114.725C162.552 114.725 161.698 115.577 161.698 116.627C161.698 117.678 162.552 118.53 163.605 118.53Z" fill="#D3E1FE"/>
<path d="M147.891 125.761H126.012V127.123H147.891V125.761Z" fill="black"/>
</g>
<defs>
<clipPath id="clip0">
<rect width="251" height="200" fill="white"/>
</clipPath>
</defs>
</svg>
