<svg width="292" height="302" viewBox="0 0 292 302" fill="none" xmlns="http://www.w3.org/2000/svg">
<path d="M91.9082 244.168C90.6762 244.168 89.5722 243.968 88.5962 243.568C87.6202 243.168 86.8362 242.576 86.2442 241.792C85.6682 241.008 85.3642 240.064 85.3322 238.96H89.7002C89.7642 239.584 89.9802 240.064 90.3482 240.4C90.7162 240.72 91.1962 240.88 91.7882 240.88C92.3962 240.88 92.8762 240.744 93.2282 240.472C93.5802 240.184 93.7562 239.792 93.7562 239.296C93.7562 238.88 93.6122 238.536 93.3242 238.264C93.0522 237.992 92.7082 237.768 92.2922 237.592C91.8922 237.416 91.3162 237.216 90.5642 236.992C89.4762 236.656 88.5882 236.32 87.9002 235.984C87.2122 235.648 86.6202 235.152 86.1242 234.496C85.6282 233.84 85.3802 232.984 85.3802 231.928C85.3802 230.36 85.9482 229.136 87.0842 228.256C88.2202 227.36 89.7002 226.912 91.5242 226.912C93.3802 226.912 94.8762 227.36 96.0122 228.256C97.1482 229.136 97.7562 230.368 97.8362 231.952H93.3962C93.3642 231.408 93.1642 230.984 92.7962 230.68C92.4282 230.36 91.9562 230.2 91.3802 230.2C90.8842 230.2 90.4842 230.336 90.1802 230.608C89.8762 230.864 89.7242 231.24 89.7242 231.736C89.7242 232.28 89.9802 232.704 90.4922 233.008C91.0042 233.312 91.8042 233.64 92.8922 233.992C93.9802 234.36 94.8602 234.712 95.5322 235.048C96.2202 235.384 96.8122 235.872 97.3082 236.512C97.8042 237.152 98.0522 237.976 98.0522 238.984C98.0522 239.944 97.8042 240.816 97.3082 241.6C96.8282 242.384 96.1242 243.008 95.1962 243.472C94.2682 243.936 93.1722 244.168 91.9082 244.168ZM113.802 230.608V244H109.698V242.176C109.282 242.768 108.714 243.248 107.994 243.616C107.29 243.968 106.506 244.144 105.642 244.144C104.618 244.144 103.714 243.92 102.93 243.472C102.146 243.008 101.538 242.344 101.106 241.48C100.674 240.616 100.458 239.6 100.458 238.432V230.608H104.538V237.88C104.538 238.776 104.77 239.472 105.234 239.968C105.698 240.464 106.322 240.712 107.106 240.712C107.906 240.712 108.538 240.464 109.002 239.968C109.466 239.472 109.698 238.776 109.698 237.88V230.608H113.802ZM115.934 237.304C115.934 235.912 116.214 234.696 116.774 233.656C117.35 232.616 118.142 231.816 119.15 231.256C120.174 230.696 121.342 230.416 122.654 230.416C124.334 230.416 125.734 230.856 126.854 231.736C127.99 232.616 128.734 233.856 129.086 235.456H124.718C124.35 234.432 123.638 233.92 122.582 233.92C121.83 233.92 121.23 234.216 120.782 234.808C120.334 235.384 120.11 236.216 120.11 237.304C120.11 238.392 120.334 239.232 120.782 239.824C121.23 240.4 121.83 240.688 122.582 240.688C123.638 240.688 124.35 240.176 124.718 239.152H129.086C128.734 240.72 127.99 241.952 126.854 242.848C125.718 243.744 124.318 244.192 122.654 244.192C121.342 244.192 120.174 243.912 119.15 243.352C118.142 242.792 117.35 241.992 116.774 240.952C116.214 239.912 115.934 238.696 115.934 237.304ZM130.465 237.304C130.465 235.912 130.745 234.696 131.305 233.656C131.881 232.616 132.673 231.816 133.681 231.256C134.705 230.696 135.873 230.416 137.185 230.416C138.865 230.416 140.265 230.856 141.385 231.736C142.521 232.616 143.265 233.856 143.617 235.456H139.249C138.881 234.432 138.169 233.92 137.113 233.92C136.361 233.92 135.761 234.216 135.313 234.808C134.865 235.384 134.641 236.216 134.641 237.304C134.641 238.392 134.865 239.232 135.313 239.824C135.761 240.4 136.361 240.688 137.113 240.688C138.169 240.688 138.881 240.176 139.249 239.152H143.617C143.265 240.72 142.521 241.952 141.385 242.848C140.249 243.744 138.849 244.192 137.185 244.192C135.873 244.192 134.705 243.912 133.681 243.352C132.673 242.792 131.881 241.992 131.305 240.952C130.745 239.912 130.465 238.696 130.465 237.304ZM158.436 237.088C158.436 237.472 158.412 237.872 158.364 238.288H149.076C149.14 239.12 149.404 239.76 149.868 240.208C150.348 240.64 150.932 240.856 151.62 240.856C152.644 240.856 153.356 240.424 153.756 239.56H158.124C157.9 240.44 157.492 241.232 156.9 241.936C156.324 242.64 155.596 243.192 154.716 243.592C153.836 243.992 152.852 244.192 151.764 244.192C150.452 244.192 149.284 243.912 148.26 243.352C147.236 242.792 146.436 241.992 145.86 240.952C145.284 239.912 144.996 238.696 144.996 237.304C144.996 235.912 145.276 234.696 145.836 233.656C146.412 232.616 147.212 231.816 148.236 231.256C149.26 230.696 150.436 230.416 151.764 230.416C153.06 230.416 154.212 230.688 155.22 231.232C156.228 231.776 157.012 232.552 157.572 233.56C158.148 234.568 158.436 235.744 158.436 237.088ZM154.236 236.008C154.236 235.304 153.996 234.744 153.516 234.328C153.036 233.912 152.436 233.704 151.716 233.704C151.028 233.704 150.444 233.904 149.964 234.304C149.5 234.704 149.212 235.272 149.1 236.008H154.236ZM166.049 244.192C164.881 244.192 163.841 243.992 162.929 243.592C162.017 243.192 161.297 242.648 160.769 241.96C160.241 241.256 159.945 240.472 159.881 239.608H163.937C163.985 240.072 164.201 240.448 164.585 240.736C164.969 241.024 165.441 241.168 166.001 241.168C166.513 241.168 166.905 241.072 167.177 240.88C167.465 240.672 167.609 240.408 167.609 240.088C167.609 239.704 167.409 239.424 167.009 239.248C166.609 239.056 165.961 238.848 165.065 238.624C164.105 238.4 163.305 238.168 162.665 237.928C162.025 237.672 161.473 237.28 161.009 236.752C160.545 236.208 160.313 235.48 160.313 234.568C160.313 233.8 160.521 233.104 160.937 232.48C161.369 231.84 161.993 231.336 162.809 230.968C163.641 230.6 164.625 230.416 165.761 230.416C167.441 230.416 168.761 230.832 169.721 231.664C170.697 232.496 171.257 233.6 171.401 234.976H167.609C167.545 234.512 167.337 234.144 166.985 233.872C166.649 233.6 166.201 233.464 165.641 233.464C165.161 233.464 164.793 233.56 164.537 233.752C164.281 233.928 164.153 234.176 164.153 234.496C164.153 234.88 164.353 235.168 164.753 235.36C165.169 235.552 165.809 235.744 166.673 235.936C167.665 236.192 168.473 236.448 169.097 236.704C169.721 236.944 170.265 237.344 170.729 237.904C171.209 238.448 171.457 239.184 171.473 240.112C171.473 240.896 171.249 241.6 170.801 242.224C170.369 242.832 169.737 243.312 168.905 243.664C168.089 244.016 167.137 244.192 166.049 244.192ZM179.432 244.192C178.264 244.192 177.224 243.992 176.312 243.592C175.4 243.192 174.68 242.648 174.152 241.96C173.624 241.256 173.328 240.472 173.264 239.608H177.32C177.368 240.072 177.584 240.448 177.968 240.736C178.352 241.024 178.824 241.168 179.384 241.168C179.896 241.168 180.288 241.072 180.56 240.88C180.848 240.672 180.992 240.408 180.992 240.088C180.992 239.704 180.792 239.424 180.392 239.248C179.992 239.056 179.344 238.848 178.448 238.624C177.488 238.4 176.688 238.168 176.048 237.928C175.408 237.672 174.856 237.28 174.392 236.752C173.928 236.208 173.696 235.48 173.696 234.568C173.696 233.8 173.904 233.104 174.32 232.48C174.752 231.84 175.376 231.336 176.192 230.968C177.024 230.6 178.008 230.416 179.144 230.416C180.824 230.416 182.144 230.832 183.104 231.664C184.08 232.496 184.64 233.6 184.784 234.976H180.992C180.928 234.512 180.72 234.144 180.368 233.872C180.032 233.6 179.584 233.464 179.024 233.464C178.544 233.464 178.176 233.56 177.92 233.752C177.664 233.928 177.536 234.176 177.536 234.496C177.536 234.88 177.736 235.168 178.136 235.36C178.552 235.552 179.192 235.744 180.056 235.936C181.048 236.192 181.856 236.448 182.48 236.704C183.104 236.944 183.648 237.344 184.112 237.904C184.592 238.448 184.84 239.184 184.856 240.112C184.856 240.896 184.632 241.6 184.184 242.224C183.752 242.832 183.12 243.312 182.288 243.664C181.472 244.016 180.52 244.192 179.432 244.192ZM192.767 226.552L192.287 238.048H188.807L188.327 226.552H192.767ZM190.607 244.192C189.887 244.192 189.295 243.984 188.831 243.568C188.383 243.136 188.159 242.608 188.159 241.984C188.159 241.344 188.383 240.808 188.831 240.376C189.295 239.944 189.887 239.728 190.607 239.728C191.311 239.728 191.887 239.944 192.335 240.376C192.799 240.808 193.031 241.344 193.031 241.984C193.031 242.608 192.799 243.136 192.335 243.568C191.887 243.984 191.311 244.192 190.607 244.192ZM202.165 226.552L201.685 238.048H198.205L197.725 226.552H202.165ZM200.005 244.192C199.285 244.192 198.693 243.984 198.229 243.568C197.781 243.136 197.557 242.608 197.557 241.984C197.557 241.344 197.781 240.808 198.229 240.376C198.693 239.944 199.285 239.728 200.005 239.728C200.709 239.728 201.285 239.944 201.733 240.376C202.197 240.808 202.429 241.344 202.429 241.984C202.429 242.608 202.197 243.136 201.733 243.568C201.285 243.984 200.709 244.192 200.005 244.192Z" fill="#27214D"/>
<path d="M5.23488 270.816H9.13888V272H3.77888V260.848H5.23488V270.816ZM10.1411 267.584C10.1411 266.688 10.3225 265.904 10.6851 265.232C11.0478 264.549 11.5438 264.021 12.1731 263.648C12.8131 263.275 13.5225 263.088 14.3011 263.088C15.0691 263.088 15.7358 263.253 16.3011 263.584C16.8665 263.915 17.2878 264.331 17.5651 264.832V263.232H19.0371V272H17.5651V270.368C17.2771 270.88 16.8451 271.307 16.2691 271.648C15.7038 271.979 15.0425 272.144 14.2851 272.144C13.5065 272.144 12.8025 271.952 12.1731 271.568C11.5438 271.184 11.0478 270.645 10.6851 269.952C10.3225 269.259 10.1411 268.469 10.1411 267.584ZM17.5651 267.6C17.5651 266.939 17.4318 266.363 17.1651 265.872C16.8985 265.381 16.5358 265.008 16.0771 264.752C15.6291 264.485 15.1331 264.352 14.5891 264.352C14.0451 264.352 13.5491 264.48 13.1011 264.736C12.6531 264.992 12.2958 265.365 12.0291 265.856C11.7625 266.347 11.6291 266.923 11.6291 267.584C11.6291 268.256 11.7625 268.843 12.0291 269.344C12.2958 269.835 12.6531 270.213 13.1011 270.48C13.5491 270.736 14.0451 270.864 14.5891 270.864C15.1331 270.864 15.6291 270.736 16.0771 270.48C16.5358 270.213 16.8985 269.835 17.1651 269.344C17.4318 268.843 17.5651 268.261 17.5651 267.6ZM22.9536 264.848C23.2416 264.347 23.6683 263.931 24.2336 263.6C24.8096 263.259 25.4763 263.088 26.2336 263.088C27.0123 263.088 27.7163 263.275 28.3456 263.648C28.9856 264.021 29.487 264.549 29.8496 265.232C30.2123 265.904 30.3936 266.688 30.3936 267.584C30.3936 268.469 30.2123 269.259 29.8496 269.952C29.487 270.645 28.9856 271.184 28.3456 271.568C27.7163 271.952 27.0123 272.144 26.2336 272.144C25.487 272.144 24.8256 271.979 24.2496 271.648C23.6843 271.307 23.2523 270.885 22.9536 270.384V276.16H21.4976V263.232H22.9536V264.848ZM28.9056 267.584C28.9056 266.923 28.7723 266.347 28.5056 265.856C28.239 265.365 27.8763 264.992 27.4176 264.736C26.9696 264.48 26.4736 264.352 25.9296 264.352C25.3963 264.352 24.9003 264.485 24.4416 264.752C23.9936 265.008 23.631 265.387 23.3536 265.888C23.087 266.379 22.9536 266.949 22.9536 267.6C22.9536 268.261 23.087 268.843 23.3536 269.344C23.631 269.835 23.9936 270.213 24.4416 270.48C24.9003 270.736 25.3963 270.864 25.9296 270.864C26.4736 270.864 26.9696 270.736 27.4176 270.48C27.8763 270.213 28.239 269.835 28.5056 269.344C28.7723 268.843 28.9056 268.256 28.9056 267.584ZM36.1341 272.144C35.3128 272.144 34.5661 271.957 33.8941 271.584C33.2328 271.211 32.7101 270.683 32.3261 270C31.9528 269.307 31.7661 268.507 31.7661 267.6C31.7661 266.704 31.9581 265.915 32.3421 265.232C32.7368 264.539 33.2701 264.011 33.9421 263.648C34.6141 263.275 35.3661 263.088 36.1981 263.088C37.0301 263.088 37.7821 263.275 38.4541 263.648C39.1261 264.011 39.6541 264.533 40.0381 265.216C40.4328 265.899 40.6301 266.693 40.6301 267.6C40.6301 268.507 40.4275 269.307 40.0221 270C39.6275 270.683 39.0888 271.211 38.4061 271.584C37.7235 271.957 36.9661 272.144 36.1341 272.144ZM36.1341 270.864C36.6568 270.864 37.1475 270.741 37.6061 270.496C38.0648 270.251 38.4328 269.883 38.7101 269.392C38.9981 268.901 39.1421 268.304 39.1421 267.6C39.1421 266.896 39.0035 266.299 38.7261 265.808C38.4488 265.317 38.0861 264.955 37.6381 264.72C37.1901 264.475 36.7048 264.352 36.1821 264.352C35.6488 264.352 35.1581 264.475 34.7101 264.72C34.2728 264.955 33.9208 265.317 33.6541 265.808C33.3875 266.299 33.2541 266.896 33.2541 267.6C33.2541 268.315 33.3821 268.917 33.6381 269.408C33.9048 269.899 34.2568 270.267 34.6941 270.512C35.1315 270.747 35.6115 270.864 36.1341 270.864ZM44.0005 264.656C44.2565 264.155 44.6192 263.765 45.0885 263.488C45.5685 263.211 46.1498 263.072 46.8325 263.072V264.576H46.4485C44.8165 264.576 44.0005 265.461 44.0005 267.232V272H42.5445V263.232H44.0005V264.656ZM47.9693 267.584C47.9693 266.688 48.1506 265.904 48.5133 265.232C48.8759 264.549 49.3719 264.021 50.0013 263.648C50.6413 263.275 51.3506 263.088 52.1293 263.088C52.8973 263.088 53.5639 263.253 54.1293 263.584C54.6946 263.915 55.1159 264.331 55.3933 264.832V263.232H56.8653V272H55.3933V270.368C55.1053 270.88 54.6733 271.307 54.0973 271.648C53.5319 271.979 52.8706 272.144 52.1133 272.144C51.3346 272.144 50.6306 271.952 50.0013 271.568C49.3719 271.184 48.8759 270.645 48.5133 269.952C48.1506 269.259 47.9693 268.469 47.9693 267.584ZM55.3933 267.6C55.3933 266.939 55.2599 266.363 54.9933 265.872C54.7266 265.381 54.3639 265.008 53.9053 264.752C53.4573 264.485 52.9613 264.352 52.4173 264.352C51.8733 264.352 51.3773 264.48 50.9293 264.736C50.4813 264.992 50.1239 265.365 49.8573 265.856C49.5906 266.347 49.4573 266.923 49.4573 267.584C49.4573 268.256 49.5906 268.843 49.8573 269.344C50.1239 269.835 50.4813 270.213 50.9293 270.48C51.3773 270.736 51.8733 270.864 52.4173 270.864C52.9613 270.864 53.4573 270.736 53.9053 270.48C54.3639 270.213 54.7266 269.835 54.9933 269.344C55.2599 268.843 55.3933 268.261 55.3933 267.6ZM63.5978 263.072C64.6644 263.072 65.5284 263.397 66.1898 264.048C66.8511 264.688 67.1818 265.616 67.1818 266.832V272H65.7418V267.04C65.7418 266.165 65.5231 265.499 65.0858 265.04C64.6484 264.571 64.0511 264.336 63.2938 264.336C62.5258 264.336 61.9124 264.576 61.4538 265.056C61.0058 265.536 60.7818 266.235 60.7818 267.152V272H59.3258V263.232H60.7818V264.48C61.0698 264.032 61.4591 263.685 61.9498 263.44C62.4511 263.195 63.0004 263.072 63.5978 263.072ZM73.2818 267.584C73.2818 266.688 73.4631 265.904 73.8258 265.232C74.1884 264.549 74.6844 264.021 75.3138 263.648C75.9538 263.275 76.6631 263.088 77.4418 263.088C78.2098 263.088 78.8764 263.253 79.4418 263.584C80.0071 263.915 80.4284 264.331 80.7058 264.832V263.232H82.1778V272H80.7058V270.368C80.4178 270.88 79.9858 271.307 79.4098 271.648C78.8444 271.979 78.1831 272.144 77.4258 272.144C76.6471 272.144 75.9431 271.952 75.3138 271.568C74.6844 271.184 74.1884 270.645 73.8258 269.952C73.4631 269.259 73.2818 268.469 73.2818 267.584ZM80.7058 267.6C80.7058 266.939 80.5724 266.363 80.3058 265.872C80.0391 265.381 79.6764 265.008 79.2178 264.752C78.7698 264.485 78.2738 264.352 77.7298 264.352C77.1858 264.352 76.6898 264.48 76.2418 264.736C75.7938 264.992 75.4364 265.365 75.1698 265.856C74.9031 266.347 74.7698 266.923 74.7698 267.584C74.7698 268.256 74.9031 268.843 75.1698 269.344C75.4364 269.835 75.7938 270.213 76.2418 270.48C76.6898 270.736 77.1858 270.864 77.7298 270.864C78.2738 270.864 78.7698 270.736 79.2178 270.48C79.6764 270.213 80.0391 269.835 80.3058 269.344C80.5724 268.843 80.7058 268.261 80.7058 267.6ZM88.9103 263.072C89.9769 263.072 90.8409 263.397 91.5023 264.048C92.1636 264.688 92.4943 265.616 92.4943 266.832V272H91.0543V267.04C91.0543 266.165 90.8356 265.499 90.3983 265.04C89.9609 264.571 89.3636 264.336 88.6063 264.336C87.8383 264.336 87.2249 264.576 86.7663 265.056C86.3183 265.536 86.0943 266.235 86.0943 267.152V272H84.6383V263.232H86.0943V264.48C86.3823 264.032 86.7716 263.685 87.2623 263.44C87.7636 263.195 88.3129 263.072 88.9103 263.072ZM94.3286 267.584C94.3286 266.688 94.51 265.904 94.8726 265.232C95.2353 264.549 95.7313 264.021 96.3606 263.648C97.0006 263.275 97.7153 263.088 98.5046 263.088C99.1873 263.088 99.822 263.248 100.409 263.568C100.995 263.877 101.443 264.288 101.753 264.8V260.16H103.225V272H101.753V270.352C101.465 270.875 101.038 271.307 100.473 271.648C99.9073 271.979 99.246 272.144 98.4886 272.144C97.71 272.144 97.0006 271.952 96.3606 271.568C95.7313 271.184 95.2353 270.645 94.8726 269.952C94.51 269.259 94.3286 268.469 94.3286 267.584ZM101.753 267.6C101.753 266.939 101.619 266.363 101.353 265.872C101.086 265.381 100.723 265.008 100.265 264.752C99.8166 264.485 99.3206 264.352 98.7766 264.352C98.2326 264.352 97.7366 264.48 97.2886 264.736C96.8406 264.992 96.4833 265.365 96.2166 265.856C95.95 266.347 95.8166 266.923 95.8166 267.584C95.8166 268.256 95.95 268.843 96.2166 269.344C96.4833 269.835 96.8406 270.213 97.2886 270.48C97.7366 270.736 98.2326 270.864 98.7766 270.864C99.3206 270.864 99.8166 270.736 100.265 270.48C100.723 270.213 101.086 269.835 101.353 269.344C101.619 268.843 101.753 268.261 101.753 267.6ZM105.141 267.584C105.141 266.688 105.322 265.904 105.685 265.232C106.048 264.549 106.544 264.021 107.173 263.648C107.813 263.275 108.522 263.088 109.301 263.088C110.069 263.088 110.736 263.253 111.301 263.584C111.866 263.915 112.288 264.331 112.565 264.832V263.232H114.037V272H112.565V270.368C112.277 270.88 111.845 271.307 111.269 271.648C110.704 271.979 110.042 272.144 109.285 272.144C108.506 272.144 107.802 271.952 107.173 271.568C106.544 271.184 106.048 270.645 105.685 269.952C105.322 269.259 105.141 268.469 105.141 267.584ZM112.565 267.6C112.565 266.939 112.432 266.363 112.165 265.872C111.898 265.381 111.536 265.008 111.077 264.752C110.629 264.485 110.133 264.352 109.589 264.352C109.045 264.352 108.549 264.48 108.101 264.736C107.653 264.992 107.296 265.365 107.029 265.856C106.762 266.347 106.629 266.923 106.629 267.584C106.629 268.256 106.762 268.843 107.029 269.344C107.296 269.835 107.653 270.213 108.101 270.48C108.549 270.736 109.045 270.864 109.589 270.864C110.133 270.864 110.629 270.736 111.077 270.48C111.536 270.213 111.898 269.835 112.165 269.344C112.432 268.843 112.565 268.261 112.565 267.6ZM122.539 264.432V269.6C122.539 270.027 122.63 270.331 122.811 270.512C122.993 270.683 123.307 270.768 123.755 270.768H124.827V272H123.515C122.705 272 122.097 271.813 121.691 271.44C121.286 271.067 121.083 270.453 121.083 269.6V264.432H119.947V263.232H121.083V261.024H122.539V263.232H124.827V264.432H122.539ZM134.591 267.28C134.591 267.557 134.575 267.851 134.543 268.16H127.535C127.589 269.024 127.882 269.701 128.415 270.192C128.959 270.672 129.615 270.912 130.383 270.912C131.013 270.912 131.535 270.768 131.951 270.48C132.378 270.181 132.677 269.787 132.847 269.296H134.415C134.181 270.139 133.711 270.827 133.007 271.36C132.303 271.883 131.429 272.144 130.383 272.144C129.551 272.144 128.805 271.957 128.143 271.584C127.493 271.211 126.981 270.683 126.607 270C126.234 269.307 126.047 268.507 126.047 267.6C126.047 266.693 126.229 265.899 126.591 265.216C126.954 264.533 127.461 264.011 128.111 263.648C128.773 263.275 129.53 263.088 130.383 263.088C131.215 263.088 131.951 263.269 132.591 263.632C133.231 263.995 133.722 264.496 134.063 265.136C134.415 265.765 134.591 266.48 134.591 267.28ZM133.087 266.976C133.087 266.421 132.965 265.947 132.719 265.552C132.474 265.147 132.138 264.843 131.711 264.64C131.295 264.427 130.831 264.32 130.319 264.32C129.583 264.32 128.954 264.555 128.431 265.024C127.919 265.493 127.626 266.144 127.551 266.976H133.087ZM137.969 260.16V272H136.513V260.16H137.969ZM139.907 267.584C139.907 266.688 140.088 265.904 140.451 265.232C140.813 264.549 141.309 264.021 141.939 263.648C142.579 263.275 143.288 263.088 144.067 263.088C144.835 263.088 145.501 263.253 146.067 263.584C146.632 263.915 147.053 264.331 147.331 264.832V263.232H148.803V272H147.331V270.368C147.043 270.88 146.611 271.307 146.035 271.648C145.469 271.979 144.808 272.144 144.051 272.144C143.272 272.144 142.568 271.952 141.939 271.568C141.309 271.184 140.813 270.645 140.451 269.952C140.088 269.259 139.907 268.469 139.907 267.584ZM147.331 267.6C147.331 266.939 147.197 266.363 146.931 265.872C146.664 265.381 146.301 265.008 145.843 264.752C145.395 264.485 144.899 264.352 144.355 264.352C143.811 264.352 143.315 264.48 142.867 264.736C142.419 264.992 142.061 265.365 141.795 265.856C141.528 266.347 141.395 266.923 141.395 267.584C141.395 268.256 141.528 268.843 141.795 269.344C142.061 269.835 142.419 270.213 142.867 270.48C143.315 270.736 143.811 270.864 144.355 270.864C144.899 270.864 145.395 270.736 145.843 270.48C146.301 270.213 146.664 269.835 146.931 269.344C147.197 268.843 147.331 268.261 147.331 267.6ZM155.615 263.072C156.277 263.072 156.874 263.216 157.407 263.504C157.941 263.781 158.357 264.203 158.655 264.768C158.965 265.333 159.119 266.021 159.119 266.832V272H157.679V267.04C157.679 266.165 157.461 265.499 157.023 265.04C156.586 264.571 155.989 264.336 155.231 264.336C154.463 264.336 153.85 264.576 153.391 265.056C152.943 265.536 152.719 266.235 152.719 267.152V272H151.263V260.16H152.719V264.48C153.007 264.032 153.402 263.685 153.903 263.44C154.415 263.195 154.986 263.072 155.615 263.072ZM167.219 264.864C167.518 264.341 167.955 263.915 168.531 263.584C169.107 263.253 169.763 263.088 170.499 263.088C171.289 263.088 171.998 263.275 172.627 263.648C173.257 264.021 173.753 264.549 174.115 265.232C174.478 265.904 174.659 266.688 174.659 267.584C174.659 268.469 174.478 269.259 174.115 269.952C173.753 270.645 173.251 271.184 172.611 271.568C171.982 271.952 171.278 272.144 170.499 272.144C169.742 272.144 169.075 271.979 168.499 271.648C167.934 271.317 167.507 270.896 167.219 270.384V272H165.763V260.16H167.219V264.864ZM173.171 267.584C173.171 266.923 173.038 266.347 172.771 265.856C172.505 265.365 172.142 264.992 171.683 264.736C171.235 264.48 170.739 264.352 170.195 264.352C169.662 264.352 169.166 264.485 168.707 264.752C168.259 265.008 167.897 265.387 167.619 265.888C167.353 266.379 167.219 266.949 167.219 267.6C167.219 268.261 167.353 268.843 167.619 269.344C167.897 269.835 168.259 270.213 168.707 270.48C169.166 270.736 169.662 270.864 170.195 270.864C170.739 270.864 171.235 270.736 171.683 270.48C172.142 270.213 172.505 269.835 172.771 269.344C173.038 268.843 173.171 268.256 173.171 267.584ZM184.576 267.28C184.576 267.557 184.56 267.851 184.528 268.16H177.52C177.573 269.024 177.866 269.701 178.4 270.192C178.944 270.672 179.6 270.912 180.368 270.912C180.997 270.912 181.52 270.768 181.936 270.48C182.362 270.181 182.661 269.787 182.832 269.296H184.4C184.165 270.139 183.696 270.827 182.992 271.36C182.288 271.883 181.413 272.144 180.368 272.144C179.536 272.144 178.789 271.957 178.128 271.584C177.477 271.211 176.965 270.683 176.592 270C176.218 269.307 176.032 268.507 176.032 267.6C176.032 266.693 176.213 265.899 176.576 265.216C176.938 264.533 177.445 264.011 178.096 263.648C178.757 263.275 179.514 263.088 180.368 263.088C181.2 263.088 181.936 263.269 182.576 263.632C183.216 263.995 183.706 264.496 184.048 265.136C184.4 265.765 184.576 266.48 184.576 267.28ZM183.072 266.976C183.072 266.421 182.949 265.947 182.704 265.552C182.458 265.147 182.122 264.843 181.696 264.64C181.28 264.427 180.816 264.32 180.304 264.32C179.568 264.32 178.938 264.555 178.416 265.024C177.904 265.493 177.61 266.144 177.536 266.976H183.072ZM187.954 264.656C188.21 264.155 188.572 263.765 189.042 263.488C189.522 263.211 190.103 263.072 190.786 263.072V264.576H190.402C188.77 264.576 187.954 265.461 187.954 267.232V272H186.498V263.232H187.954V264.656ZM196.818 263.072C197.48 263.072 198.077 263.216 198.61 263.504C199.144 263.781 199.56 264.203 199.858 264.768C200.168 265.333 200.322 266.021 200.322 266.832V272H198.882V267.04C198.882 266.165 198.664 265.499 198.226 265.04C197.789 264.571 197.192 264.336 196.434 264.336C195.666 264.336 195.053 264.576 194.594 265.056C194.146 265.536 193.922 266.235 193.922 267.152V272H192.466V260.16H193.922V264.48C194.21 264.032 194.605 263.685 195.106 263.44C195.618 263.195 196.189 263.072 196.818 263.072ZM202.157 267.584C202.157 266.688 202.338 265.904 202.701 265.232C203.063 264.549 203.559 264.021 204.189 263.648C204.829 263.275 205.538 263.088 206.317 263.088C207.085 263.088 207.751 263.253 208.317 263.584C208.882 263.915 209.303 264.331 209.581 264.832V263.232H211.053V272H209.581V270.368C209.293 270.88 208.861 271.307 208.285 271.648C207.719 271.979 207.058 272.144 206.301 272.144C205.522 272.144 204.818 271.952 204.189 271.568C203.559 271.184 203.063 270.645 202.701 269.952C202.338 269.259 202.157 268.469 202.157 267.584ZM209.581 267.6C209.581 266.939 209.447 266.363 209.181 265.872C208.914 265.381 208.551 265.008 208.093 264.752C207.645 264.485 207.149 264.352 206.605 264.352C206.061 264.352 205.565 264.48 205.117 264.736C204.669 264.992 204.311 265.365 204.045 265.856C203.778 266.347 203.645 266.923 203.645 267.584C203.645 268.256 203.778 268.843 204.045 269.344C204.311 269.835 204.669 270.213 205.117 270.48C205.565 270.736 206.061 270.864 206.605 270.864C207.149 270.864 207.645 270.736 208.093 270.48C208.551 270.213 208.914 269.835 209.181 269.344C209.447 268.843 209.581 268.261 209.581 267.6ZM216.617 272.144C215.945 272.144 215.343 272.032 214.809 271.808C214.276 271.573 213.855 271.253 213.545 270.848C213.236 270.432 213.065 269.957 213.033 269.424H214.537C214.58 269.861 214.783 270.219 215.145 270.496C215.519 270.773 216.004 270.912 216.601 270.912C217.156 270.912 217.593 270.789 217.913 270.544C218.233 270.299 218.393 269.989 218.393 269.616C218.393 269.232 218.223 268.949 217.881 268.768C217.54 268.576 217.012 268.389 216.297 268.208C215.647 268.037 215.113 267.867 214.697 267.696C214.292 267.515 213.94 267.253 213.641 266.912C213.353 266.56 213.209 266.101 213.209 265.536C213.209 265.088 213.343 264.677 213.609 264.304C213.876 263.931 214.255 263.637 214.745 263.424C215.236 263.2 215.796 263.088 216.425 263.088C217.396 263.088 218.18 263.333 218.777 263.824C219.375 264.315 219.695 264.987 219.737 265.84H218.281C218.249 265.381 218.063 265.013 217.721 264.736C217.391 264.459 216.943 264.32 216.377 264.32C215.855 264.32 215.439 264.432 215.129 264.656C214.82 264.88 214.665 265.173 214.665 265.536C214.665 265.824 214.756 266.064 214.937 266.256C215.129 266.437 215.364 266.587 215.641 266.704C215.929 266.811 216.324 266.933 216.825 267.072C217.455 267.243 217.967 267.413 218.361 267.584C218.756 267.744 219.092 267.989 219.369 268.32C219.657 268.651 219.807 269.083 219.817 269.616C219.817 270.096 219.684 270.528 219.417 270.912C219.151 271.296 218.772 271.6 218.281 271.824C217.801 272.037 217.247 272.144 216.617 272.144ZM222.625 261.808C222.347 261.808 222.113 261.712 221.921 261.52C221.729 261.328 221.633 261.093 221.633 260.816C221.633 260.539 221.729 260.304 221.921 260.112C222.113 259.92 222.347 259.824 222.625 259.824C222.891 259.824 223.115 259.92 223.297 260.112C223.489 260.304 223.585 260.539 223.585 260.816C223.585 261.093 223.489 261.328 223.297 261.52C223.115 261.712 222.891 261.808 222.625 261.808ZM223.329 263.232V272H221.873V263.232H223.329ZM227.266 260.16V272H225.81V260.16H227.266ZM233.469 267.584C233.469 266.688 233.651 265.904 234.013 265.232C234.376 264.549 234.872 264.021 235.501 263.648C236.141 263.275 236.856 263.088 237.645 263.088C238.328 263.088 238.963 263.248 239.549 263.568C240.136 263.877 240.584 264.288 240.893 264.8V260.16H242.365V272H240.893V270.352C240.605 270.875 240.179 271.307 239.613 271.648C239.048 271.979 238.387 272.144 237.629 272.144C236.851 272.144 236.141 271.952 235.501 271.568C234.872 271.184 234.376 270.645 234.013 269.952C233.651 269.259 233.469 268.469 233.469 267.584ZM240.893 267.6C240.893 266.939 240.76 266.363 240.493 265.872C240.227 265.381 239.864 265.008 239.405 264.752C238.957 264.485 238.461 264.352 237.917 264.352C237.373 264.352 236.877 264.48 236.429 264.736C235.981 264.992 235.624 265.365 235.357 265.856C235.091 266.347 234.957 266.923 234.957 267.584C234.957 268.256 235.091 268.843 235.357 269.344C235.624 269.835 235.981 270.213 236.429 270.48C236.877 270.736 237.373 270.864 237.917 270.864C238.461 270.864 238.957 270.736 239.405 270.48C239.864 270.213 240.227 269.835 240.493 269.344C240.76 268.843 240.893 268.261 240.893 267.6ZM245.578 261.808C245.3 261.808 245.066 261.712 244.874 261.52C244.682 261.328 244.586 261.093 244.586 260.816C244.586 260.539 244.682 260.304 244.874 260.112C245.066 259.92 245.3 259.824 245.578 259.824C245.844 259.824 246.068 259.92 246.25 260.112C246.442 260.304 246.538 260.539 246.538 260.816C246.538 261.093 246.442 261.328 246.25 261.52C246.068 261.712 245.844 261.808 245.578 261.808ZM246.282 263.232V272H244.826V263.232H246.282ZM253.659 272L250.219 268.128V272H248.763V260.16H250.219V267.12L253.595 263.232H255.627L251.499 267.6L255.643 272H253.659ZM257.75 261.808C257.472 261.808 257.238 261.712 257.046 261.52C256.854 261.328 256.758 261.093 256.758 260.816C256.758 260.539 256.854 260.304 257.046 260.112C257.238 259.92 257.472 259.824 257.75 259.824C258.016 259.824 258.24 259.92 258.422 260.112C258.614 260.304 258.71 260.539 258.71 260.816C258.71 261.093 258.614 261.328 258.422 261.52C258.24 261.712 258.016 261.808 257.75 261.808ZM258.454 263.232V272H256.998V263.232H258.454ZM262.391 264.656C262.647 264.155 263.01 263.765 263.479 263.488C263.959 263.211 264.54 263.072 265.223 263.072V264.576H264.839C263.207 264.576 262.391 265.461 262.391 267.232V272H260.935V263.232H262.391V264.656ZM267.656 261.808C267.379 261.808 267.144 261.712 266.952 261.52C266.76 261.328 266.664 261.093 266.664 260.816C266.664 260.539 266.76 260.304 266.952 260.112C267.144 259.92 267.379 259.824 267.656 259.824C267.923 259.824 268.147 259.92 268.328 260.112C268.52 260.304 268.616 260.539 268.616 260.816C268.616 261.093 268.52 261.328 268.328 261.52C268.147 261.712 267.923 261.808 267.656 261.808ZM268.36 263.232V272H266.904V263.232H268.36ZM281.385 263.072C282.068 263.072 282.676 263.216 283.209 263.504C283.743 263.781 284.164 264.203 284.473 264.768C284.783 265.333 284.937 266.021 284.937 266.832V272H283.497V267.04C283.497 266.165 283.279 265.499 282.841 265.04C282.415 264.571 281.833 264.336 281.097 264.336C280.34 264.336 279.737 264.581 279.289 265.072C278.841 265.552 278.617 266.251 278.617 267.168V272H277.177V267.04C277.177 266.165 276.959 265.499 276.521 265.04C276.095 264.571 275.513 264.336 274.777 264.336C274.02 264.336 273.417 264.581 272.969 265.072C272.521 265.552 272.297 266.251 272.297 267.168V272H270.841V263.232H272.297V264.496C272.585 264.037 272.969 263.685 273.449 263.44C273.94 263.195 274.479 263.072 275.065 263.072C275.801 263.072 276.452 263.237 277.017 263.568C277.583 263.899 278.004 264.384 278.281 265.024C278.527 264.405 278.932 263.925 279.497 263.584C280.063 263.243 280.692 263.072 281.385 263.072ZM287.79 272.096C287.512 272.096 287.278 272 287.086 271.808C286.894 271.616 286.798 271.381 286.798 271.104C286.798 270.827 286.894 270.592 287.086 270.4C287.278 270.208 287.512 270.112 287.79 270.112C288.056 270.112 288.28 270.208 288.462 270.4C288.654 270.592 288.75 270.827 288.75 271.104C288.75 271.381 288.654 271.616 288.462 271.808C288.28 272 288.056 272.096 287.79 272.096ZM13.6958 288.112C13.6958 289.04 13.3758 289.813 12.7358 290.432C12.1065 291.04 11.1411 291.344 9.83981 291.344H7.69581V296H6.23981V284.848H9.83981C11.0985 284.848 12.0531 285.152 12.7038 285.76C13.3651 286.368 13.6958 287.152 13.6958 288.112ZM9.83981 290.144C10.6505 290.144 11.2478 289.968 11.6318 289.616C12.0158 289.264 12.2078 288.763 12.2078 288.112C12.2078 286.736 11.4185 286.048 9.83981 286.048H7.69581V290.144H9.83981ZM16.9614 288.656C17.2174 288.155 17.5801 287.765 18.0494 287.488C18.5294 287.211 19.1108 287.072 19.7934 287.072V288.576H19.4094C17.7774 288.576 16.9614 289.461 16.9614 291.232V296H15.5054V287.232H16.9614V288.656ZM25.2982 296.144C24.4769 296.144 23.7302 295.957 23.0582 295.584C22.3969 295.211 21.8742 294.683 21.4902 294C21.1169 293.307 20.9302 292.507 20.9302 291.6C20.9302 290.704 21.1222 289.915 21.5062 289.232C21.9009 288.539 22.4342 288.011 23.1062 287.648C23.7782 287.275 24.5302 287.088 25.3622 287.088C26.1942 287.088 26.9462 287.275 27.6182 287.648C28.2902 288.011 28.8182 288.533 29.2022 289.216C29.5969 289.899 29.7942 290.693 29.7942 291.6C29.7942 292.507 29.5915 293.307 29.1862 294C28.7915 294.683 28.2529 295.211 27.5702 295.584C26.8875 295.957 26.1302 296.144 25.2982 296.144ZM25.2982 294.864C25.8209 294.864 26.3115 294.741 26.7702 294.496C27.2289 294.251 27.5969 293.883 27.8742 293.392C28.1622 292.901 28.3062 292.304 28.3062 291.6C28.3062 290.896 28.1675 290.299 27.8902 289.808C27.6129 289.317 27.2502 288.955 26.8022 288.72C26.3542 288.475 25.8689 288.352 25.3462 288.352C24.8129 288.352 24.3222 288.475 23.8742 288.72C23.4369 288.955 23.0849 289.317 22.8182 289.808C22.5515 290.299 22.4182 290.896 22.4182 291.6C22.4182 292.315 22.5462 292.917 22.8022 293.408C23.0689 293.899 23.4209 294.267 23.8582 294.512C24.2955 294.747 24.7755 294.864 25.2982 294.864ZM34.8126 296.144C34.1406 296.144 33.5379 296.032 33.0046 295.808C32.4712 295.573 32.0499 295.253 31.7406 294.848C31.4312 294.432 31.2606 293.957 31.2286 293.424H32.7326C32.7752 293.861 32.9779 294.219 33.3406 294.496C33.7139 294.773 34.1992 294.912 34.7966 294.912C35.3512 294.912 35.7886 294.789 36.1086 294.544C36.4286 294.299 36.5886 293.989 36.5886 293.616C36.5886 293.232 36.4179 292.949 36.0766 292.768C35.7352 292.576 35.2072 292.389 34.4926 292.208C33.8419 292.037 33.3086 291.867 32.8926 291.696C32.4872 291.515 32.1352 291.253 31.8366 290.912C31.5486 290.56 31.4046 290.101 31.4046 289.536C31.4046 289.088 31.5379 288.677 31.8046 288.304C32.0712 287.931 32.4499 287.637 32.9406 287.424C33.4312 287.2 33.9912 287.088 34.6206 287.088C35.5912 287.088 36.3752 287.333 36.9726 287.824C37.5699 288.315 37.8899 288.987 37.9326 289.84H36.4766C36.4446 289.381 36.2579 289.013 35.9166 288.736C35.5859 288.459 35.1379 288.32 34.5726 288.32C34.0499 288.32 33.6339 288.432 33.3246 288.656C33.0152 288.88 32.8606 289.173 32.8606 289.536C32.8606 289.824 32.9512 290.064 33.1326 290.256C33.3246 290.437 33.5592 290.587 33.8366 290.704C34.1246 290.811 34.5192 290.933 35.0206 291.072C35.6499 291.243 36.1619 291.413 36.5566 291.584C36.9512 291.744 37.2872 291.989 37.5646 292.32C37.8526 292.651 38.0019 293.083 38.0126 293.616C38.0126 294.096 37.8792 294.528 37.6126 294.912C37.3459 295.296 36.9672 295.6 36.4766 295.824C35.9966 296.037 35.4419 296.144 34.8126 296.144ZM48.0679 291.28C48.0679 291.557 48.0519 291.851 48.0199 292.16H41.0119C41.0653 293.024 41.3586 293.701 41.8919 294.192C42.4359 294.672 43.0919 294.912 43.8599 294.912C44.4893 294.912 45.0119 294.768 45.4279 294.48C45.8546 294.181 46.1533 293.787 46.3239 293.296H47.8919C47.6573 294.139 47.1879 294.827 46.4839 295.36C45.7799 295.883 44.9053 296.144 43.8599 296.144C43.0279 296.144 42.2813 295.957 41.6199 295.584C40.9693 295.211 40.4573 294.683 40.0839 294C39.7106 293.307 39.5239 292.507 39.5239 291.6C39.5239 290.693 39.7053 289.899 40.0679 289.216C40.4306 288.533 40.9373 288.011 41.5879 287.648C42.2493 287.275 43.0066 287.088 43.8599 287.088C44.6919 287.088 45.4279 287.269 46.0679 287.632C46.7079 287.995 47.1986 288.496 47.5399 289.136C47.8919 289.765 48.0679 290.48 48.0679 291.28ZM46.5639 290.976C46.5639 290.421 46.4413 289.947 46.1959 289.552C45.9506 289.147 45.6146 288.843 45.1879 288.64C44.7719 288.427 44.3079 288.32 43.7959 288.32C43.0599 288.32 42.4306 288.555 41.9079 289.024C41.3959 289.493 41.1026 290.144 41.0279 290.976H46.5639ZM53.0938 296.144C52.4218 296.144 51.8191 296.032 51.2858 295.808C50.7525 295.573 50.3311 295.253 50.0218 294.848C49.7125 294.432 49.5418 293.957 49.5098 293.424H51.0138C51.0565 293.861 51.2591 294.219 51.6218 294.496C51.9951 294.773 52.4805 294.912 53.0778 294.912C53.6325 294.912 54.0698 294.789 54.3898 294.544C54.7098 294.299 54.8698 293.989 54.8698 293.616C54.8698 293.232 54.6991 292.949 54.3578 292.768C54.0165 292.576 53.4885 292.389 52.7738 292.208C52.1231 292.037 51.5898 291.867 51.1738 291.696C50.7685 291.515 50.4165 291.253 50.1178 290.912C49.8298 290.56 49.6858 290.101 49.6858 289.536C49.6858 289.088 49.8191 288.677 50.0858 288.304C50.3525 287.931 50.7311 287.637 51.2218 287.424C51.7125 287.2 52.2725 287.088 52.9018 287.088C53.8725 287.088 54.6565 287.333 55.2538 287.824C55.8511 288.315 56.1711 288.987 56.2138 289.84H54.7578C54.7258 289.381 54.5391 289.013 54.1978 288.736C53.8671 288.459 53.4191 288.32 52.8538 288.32C52.3311 288.32 51.9151 288.432 51.6058 288.656C51.2965 288.88 51.1418 289.173 51.1418 289.536C51.1418 289.824 51.2325 290.064 51.4138 290.256C51.6058 290.437 51.8405 290.587 52.1178 290.704C52.4058 290.811 52.8005 290.933 53.3018 291.072C53.9311 291.243 54.4431 291.413 54.8378 291.584C55.2325 291.744 55.5685 291.989 55.8458 292.32C56.1338 292.651 56.2831 293.083 56.2938 293.616C56.2938 294.096 56.1605 294.528 55.8938 294.912C55.6271 295.296 55.2485 295.6 54.7578 295.824C54.2778 296.037 53.7231 296.144 53.0938 296.144ZM62.0708 291.584C62.0708 290.688 62.2521 289.904 62.6148 289.232C62.9775 288.549 63.4735 288.021 64.1028 287.648C64.7428 287.275 65.4521 287.088 66.2308 287.088C66.9988 287.088 67.6655 287.253 68.2308 287.584C68.7961 287.915 69.2175 288.331 69.4948 288.832V287.232H70.9668V296H69.4948V294.368C69.2068 294.88 68.7748 295.307 68.1988 295.648C67.6335 295.979 66.9721 296.144 66.2148 296.144C65.4361 296.144 64.7321 295.952 64.1028 295.568C63.4735 295.184 62.9775 294.645 62.6148 293.952C62.2521 293.259 62.0708 292.469 62.0708 291.584ZM69.4948 291.6C69.4948 290.939 69.3615 290.363 69.0948 289.872C68.8281 289.381 68.4655 289.008 68.0068 288.752C67.5588 288.485 67.0628 288.352 66.5188 288.352C65.9748 288.352 65.4788 288.48 65.0308 288.736C64.5828 288.992 64.2255 289.365 63.9588 289.856C63.6921 290.347 63.5588 290.923 63.5588 291.584C63.5588 292.256 63.6921 292.843 63.9588 293.344C64.2255 293.835 64.5828 294.213 65.0308 294.48C65.4788 294.736 65.9748 294.864 66.5188 294.864C67.0628 294.864 67.5588 294.736 68.0068 294.48C68.4655 294.213 68.8281 293.835 69.0948 293.344C69.3615 292.843 69.4948 292.261 69.4948 291.6ZM78.3233 296L74.8833 292.128V296H73.4273V284.16H74.8833V291.12L78.2593 287.232H80.2913L76.1633 291.6L80.3073 296H78.3233ZM81.1177 291.584C81.1177 290.688 81.299 289.904 81.6617 289.232C82.0244 288.549 82.5204 288.021 83.1497 287.648C83.7897 287.275 84.499 287.088 85.2777 287.088C86.0457 287.088 86.7124 287.253 87.2777 287.584C87.843 287.915 88.2644 288.331 88.5417 288.832V287.232H90.0137V296H88.5417V294.368C88.2537 294.88 87.8217 295.307 87.2457 295.648C86.6804 295.979 86.019 296.144 85.2617 296.144C84.483 296.144 83.779 295.952 83.1497 295.568C82.5204 295.184 82.0244 294.645 81.6617 293.952C81.299 293.259 81.1177 292.469 81.1177 291.584ZM88.5417 291.6C88.5417 290.939 88.4084 290.363 88.1417 289.872C87.875 289.381 87.5124 289.008 87.0537 288.752C86.6057 288.485 86.1097 288.352 85.5657 288.352C85.0217 288.352 84.5257 288.48 84.0777 288.736C83.6297 288.992 83.2724 289.365 83.0057 289.856C82.739 290.347 82.6057 290.923 82.6057 291.584C82.6057 292.256 82.739 292.843 83.0057 293.344C83.2724 293.835 83.6297 294.213 84.0777 294.48C84.5257 294.736 85.0217 294.864 85.5657 294.864C86.1097 294.864 86.6057 294.736 87.0537 294.48C87.5124 294.213 87.875 293.835 88.1417 293.344C88.4084 292.843 88.5417 292.261 88.5417 291.6ZM96.7462 287.072C97.8129 287.072 98.6769 287.397 99.3382 288.048C99.9995 288.688 100.33 289.616 100.33 290.832V296H98.8902V291.04C98.8902 290.165 98.6715 289.499 98.2342 289.04C97.7969 288.571 97.1995 288.336 96.4422 288.336C95.6742 288.336 95.0609 288.576 94.6022 289.056C94.1542 289.536 93.9302 290.235 93.9302 291.152V296H92.4742V287.232H93.9302V288.48C94.2182 288.032 94.6075 287.685 95.0982 287.44C95.5995 287.195 96.1489 287.072 96.7462 287.072ZM110.078 296.144C109.406 296.144 108.804 296.032 108.27 295.808C107.737 295.573 107.316 295.253 107.006 294.848C106.697 294.432 106.526 293.957 106.494 293.424H107.998C108.041 293.861 108.244 294.219 108.606 294.496C108.98 294.773 109.465 294.912 110.062 294.912C110.617 294.912 111.054 294.789 111.374 294.544C111.694 294.299 111.854 293.989 111.854 293.616C111.854 293.232 111.684 292.949 111.342 292.768C111.001 292.576 110.473 292.389 109.758 292.208C109.108 292.037 108.574 291.867 108.158 291.696C107.753 291.515 107.401 291.253 107.102 290.912C106.814 290.56 106.67 290.101 106.67 289.536C106.67 289.088 106.804 288.677 107.07 288.304C107.337 287.931 107.716 287.637 108.206 287.424C108.697 287.2 109.257 287.088 109.886 287.088C110.857 287.088 111.641 287.333 112.238 287.824C112.836 288.315 113.156 288.987 113.198 289.84H111.742C111.71 289.381 111.524 289.013 111.182 288.736C110.852 288.459 110.404 288.32 109.838 288.32C109.316 288.32 108.9 288.432 108.59 288.656C108.281 288.88 108.126 289.173 108.126 289.536C108.126 289.824 108.217 290.064 108.398 290.256C108.59 290.437 108.825 290.587 109.102 290.704C109.39 290.811 109.785 290.933 110.286 291.072C110.916 291.243 111.428 291.413 111.822 291.584C112.217 291.744 112.553 291.989 112.83 292.32C113.118 292.651 113.268 293.083 113.278 293.616C113.278 294.096 113.145 294.528 112.878 294.912C112.612 295.296 112.233 295.6 111.742 295.824C111.262 296.037 110.708 296.144 110.078 296.144ZM123.334 291.28C123.334 291.557 123.318 291.851 123.286 292.16H116.278C116.331 293.024 116.624 293.701 117.158 294.192C117.702 294.672 118.358 294.912 119.126 294.912C119.755 294.912 120.278 294.768 120.694 294.48C121.12 294.181 121.419 293.787 121.59 293.296H123.158C122.923 294.139 122.454 294.827 121.75 295.36C121.046 295.883 120.171 296.144 119.126 296.144C118.294 296.144 117.547 295.957 116.886 295.584C116.235 295.211 115.723 294.683 115.35 294C114.976 293.307 114.79 292.507 114.79 291.6C114.79 290.693 114.971 289.899 115.334 289.216C115.696 288.533 116.203 288.011 116.854 287.648C117.515 287.275 118.272 287.088 119.126 287.088C119.958 287.088 120.694 287.269 121.334 287.632C121.974 287.995 122.464 288.496 122.806 289.136C123.158 289.765 123.334 290.48 123.334 291.28ZM121.83 290.976C121.83 290.421 121.707 289.947 121.462 289.552C121.216 289.147 120.88 288.843 120.454 288.64C120.038 288.427 119.574 288.32 119.062 288.32C118.326 288.32 117.696 288.555 117.174 289.024C116.662 289.493 116.368 290.144 116.294 290.976H121.83ZM128.871 287.088C129.629 287.088 130.29 287.253 130.855 287.584C131.431 287.915 131.858 288.331 132.135 288.832V287.232H133.607V296.192C133.607 296.992 133.437 297.701 133.095 298.32C132.754 298.949 132.263 299.44 131.623 299.792C130.994 300.144 130.258 300.32 129.415 300.32C128.263 300.32 127.303 300.048 126.535 299.504C125.767 298.96 125.314 298.219 125.175 297.28H126.615C126.775 297.813 127.106 298.24 127.607 298.56C128.109 298.891 128.711 299.056 129.415 299.056C130.215 299.056 130.866 298.805 131.367 298.304C131.879 297.803 132.135 297.099 132.135 296.192V294.352C131.847 294.864 131.421 295.291 130.855 295.632C130.29 295.973 129.629 296.144 128.871 296.144C128.093 296.144 127.383 295.952 126.743 295.568C126.114 295.184 125.618 294.645 125.255 293.952C124.893 293.259 124.711 292.469 124.711 291.584C124.711 290.688 124.893 289.904 125.255 289.232C125.618 288.549 126.114 288.021 126.743 287.648C127.383 287.275 128.093 287.088 128.871 287.088ZM132.135 291.6C132.135 290.939 132.002 290.363 131.735 289.872C131.469 289.381 131.106 289.008 130.647 288.752C130.199 288.485 129.703 288.352 129.159 288.352C128.615 288.352 128.119 288.48 127.671 288.736C127.223 288.992 126.866 289.365 126.599 289.856C126.333 290.347 126.199 290.923 126.199 291.584C126.199 292.256 126.333 292.843 126.599 293.344C126.866 293.835 127.223 294.213 127.671 294.48C128.119 294.736 128.615 294.864 129.159 294.864C129.703 294.864 130.199 294.736 130.647 294.48C131.106 294.213 131.469 293.835 131.735 293.344C132.002 292.843 132.135 292.261 132.135 291.6ZM144.068 291.28C144.068 291.557 144.052 291.851 144.02 292.16H137.012C137.065 293.024 137.359 293.701 137.892 294.192C138.436 294.672 139.092 294.912 139.86 294.912C140.489 294.912 141.012 294.768 141.428 294.48C141.855 294.181 142.153 293.787 142.324 293.296H143.892C143.657 294.139 143.188 294.827 142.484 295.36C141.78 295.883 140.905 296.144 139.86 296.144C139.028 296.144 138.281 295.957 137.62 295.584C136.969 295.211 136.457 294.683 136.084 294C135.711 293.307 135.524 292.507 135.524 291.6C135.524 290.693 135.705 289.899 136.068 289.216C136.431 288.533 136.937 288.011 137.588 287.648C138.249 287.275 139.007 287.088 139.86 287.088C140.692 287.088 141.428 287.269 142.068 287.632C142.708 287.995 143.199 288.496 143.54 289.136C143.892 289.765 144.068 290.48 144.068 291.28ZM142.564 290.976C142.564 290.421 142.441 289.947 142.196 289.552C141.951 289.147 141.615 288.843 141.188 288.64C140.772 288.427 140.308 288.32 139.796 288.32C139.06 288.32 138.431 288.555 137.908 289.024C137.396 289.493 137.103 290.144 137.028 290.976H142.564ZM147.446 288.656C147.702 288.155 148.064 287.765 148.534 287.488C149.014 287.211 149.595 287.072 150.278 287.072V288.576H149.894C148.262 288.576 147.446 289.461 147.446 291.232V296H145.99V287.232H147.446V288.656ZM151.415 291.584C151.415 290.688 151.596 289.904 151.959 289.232C152.321 288.549 152.817 288.021 153.447 287.648C154.087 287.275 154.796 287.088 155.575 287.088C156.343 287.088 157.009 287.253 157.575 287.584C158.14 287.915 158.561 288.331 158.839 288.832V287.232H160.311V296H158.839V294.368C158.551 294.88 158.119 295.307 157.543 295.648C156.977 295.979 156.316 296.144 155.559 296.144C154.78 296.144 154.076 295.952 153.447 295.568C152.817 295.184 152.321 294.645 151.959 293.952C151.596 293.259 151.415 292.469 151.415 291.584ZM158.839 291.6C158.839 290.939 158.705 290.363 158.439 289.872C158.172 289.381 157.809 289.008 157.351 288.752C156.903 288.485 156.407 288.352 155.863 288.352C155.319 288.352 154.823 288.48 154.375 288.736C153.927 288.992 153.569 289.365 153.303 289.856C153.036 290.347 152.903 290.923 152.903 291.584C152.903 292.256 153.036 292.843 153.303 293.344C153.569 293.835 153.927 294.213 154.375 294.48C154.823 294.736 155.319 294.864 155.863 294.864C156.407 294.864 156.903 294.736 157.351 294.48C157.809 294.213 158.172 293.835 158.439 293.344C158.705 292.843 158.839 292.261 158.839 291.6ZM166.493 291.584C166.493 290.688 166.674 289.904 167.037 289.232C167.399 288.549 167.895 288.021 168.525 287.648C169.165 287.275 169.879 287.088 170.669 287.088C171.351 287.088 171.986 287.248 172.573 287.568C173.159 287.877 173.607 288.288 173.917 288.8V284.16H175.389V296H173.917V294.352C173.629 294.875 173.202 295.307 172.637 295.648C172.071 295.979 171.41 296.144 170.653 296.144C169.874 296.144 169.165 295.952 168.525 295.568C167.895 295.184 167.399 294.645 167.037 293.952C166.674 293.259 166.493 292.469 166.493 291.584ZM173.917 291.6C173.917 290.939 173.783 290.363 173.517 289.872C173.25 289.381 172.887 289.008 172.429 288.752C171.981 288.485 171.485 288.352 170.941 288.352C170.397 288.352 169.901 288.48 169.453 288.736C169.005 288.992 168.647 289.365 168.381 289.856C168.114 290.347 167.981 290.923 167.981 291.584C167.981 292.256 168.114 292.843 168.381 293.344C168.647 293.835 169.005 294.213 169.453 294.48C169.901 294.736 170.397 294.864 170.941 294.864C171.485 294.864 171.981 294.736 172.429 294.48C172.887 294.213 173.25 293.835 173.517 293.344C173.783 292.843 173.917 292.261 173.917 291.6ZM178.601 285.808C178.324 285.808 178.089 285.712 177.897 285.52C177.705 285.328 177.609 285.093 177.609 284.816C177.609 284.539 177.705 284.304 177.897 284.112C178.089 283.92 178.324 283.824 178.601 283.824C178.868 283.824 179.092 283.92 179.273 284.112C179.465 284.304 179.561 284.539 179.561 284.816C179.561 285.093 179.465 285.328 179.273 285.52C179.092 285.712 178.868 285.808 178.601 285.808ZM179.305 287.232V296H177.849V287.232H179.305ZM183.563 288.432V293.6C183.563 294.027 183.653 294.331 183.835 294.512C184.016 294.683 184.331 294.768 184.779 294.768H185.851V296H184.539C183.728 296 183.12 295.813 182.715 295.44C182.309 295.067 182.107 294.453 182.107 293.6V288.432H180.971V287.232H182.107V285.024H183.563V287.232H185.851V288.432H183.563ZM188.367 285.808C188.089 285.808 187.855 285.712 187.663 285.52C187.471 285.328 187.375 285.093 187.375 284.816C187.375 284.539 187.471 284.304 187.663 284.112C187.855 283.92 188.089 283.824 188.367 283.824C188.633 283.824 188.857 283.92 189.039 284.112C189.231 284.304 189.327 284.539 189.327 284.816C189.327 285.093 189.231 285.328 189.039 285.52C188.857 285.712 188.633 285.808 188.367 285.808ZM189.071 287.232V296H187.615V287.232H189.071ZM195.824 287.072C196.891 287.072 197.755 287.397 198.416 288.048C199.078 288.688 199.408 289.616 199.408 290.832V296H197.968V291.04C197.968 290.165 197.75 289.499 197.312 289.04C196.875 288.571 196.278 288.336 195.52 288.336C194.752 288.336 194.139 288.576 193.68 289.056C193.232 289.536 193.008 290.235 193.008 291.152V296H191.552V287.232H193.008V288.48C193.296 288.032 193.686 287.685 194.176 287.44C194.678 287.195 195.227 287.072 195.824 287.072ZM201.243 291.584C201.243 290.688 201.424 289.904 201.787 289.232C202.149 288.549 202.645 288.021 203.275 287.648C203.915 287.275 204.629 287.088 205.419 287.088C206.101 287.088 206.736 287.248 207.323 287.568C207.909 287.877 208.357 288.288 208.667 288.8V284.16H210.139V296H208.667V294.352C208.379 294.875 207.952 295.307 207.387 295.648C206.821 295.979 206.16 296.144 205.403 296.144C204.624 296.144 203.915 295.952 203.275 295.568C202.645 295.184 202.149 294.645 201.787 293.952C201.424 293.259 201.243 292.469 201.243 291.584ZM208.667 291.6C208.667 290.939 208.533 290.363 208.267 289.872C208 289.381 207.637 289.008 207.179 288.752C206.731 288.485 206.235 288.352 205.691 288.352C205.147 288.352 204.651 288.48 204.203 288.736C203.755 288.992 203.397 289.365 203.131 289.856C202.864 290.347 202.731 290.923 202.731 291.584C202.731 292.256 202.864 292.843 203.131 293.344C203.397 293.835 203.755 294.213 204.203 294.48C204.651 294.736 205.147 294.864 205.691 294.864C206.235 294.864 206.731 294.736 207.179 294.48C207.637 294.213 208 293.835 208.267 293.344C208.533 292.843 208.667 292.261 208.667 291.6ZM212.055 291.584C212.055 290.688 212.237 289.904 212.599 289.232C212.962 288.549 213.458 288.021 214.087 287.648C214.727 287.275 215.437 287.088 216.215 287.088C216.983 287.088 217.65 287.253 218.215 287.584C218.781 287.915 219.202 288.331 219.479 288.832V287.232H220.951V296H219.479V294.368C219.191 294.88 218.759 295.307 218.183 295.648C217.618 295.979 216.957 296.144 216.199 296.144C215.421 296.144 214.717 295.952 214.087 295.568C213.458 295.184 212.962 294.645 212.599 293.952C212.237 293.259 212.055 292.469 212.055 291.584ZM219.479 291.6C219.479 290.939 219.346 290.363 219.079 289.872C218.813 289.381 218.45 289.008 217.991 288.752C217.543 288.485 217.047 288.352 216.503 288.352C215.959 288.352 215.463 288.48 215.015 288.736C214.567 288.992 214.21 289.365 213.943 289.856C213.677 290.347 213.543 290.923 213.543 291.584C213.543 292.256 213.677 292.843 213.943 293.344C214.21 293.835 214.567 294.213 215.015 294.48C215.463 294.736 215.959 294.864 216.503 294.864C217.047 294.864 217.543 294.736 217.991 294.48C218.45 294.213 218.813 293.835 219.079 293.344C219.346 292.843 219.479 292.261 219.479 291.6ZM228.308 296L224.868 292.128V296H223.412V284.16H224.868V291.12L228.244 287.232H230.276L226.148 291.6L230.292 296H228.308ZM237.368 284.16V296H235.912V284.16H237.368ZM239.305 291.584C239.305 290.688 239.487 289.904 239.849 289.232C240.212 288.549 240.708 288.021 241.337 287.648C241.977 287.275 242.687 287.088 243.465 287.088C244.233 287.088 244.9 287.253 245.465 287.584C246.031 287.915 246.452 288.331 246.729 288.832V287.232H248.201V296H246.729V294.368C246.441 294.88 246.009 295.307 245.433 295.648C244.868 295.979 244.207 296.144 243.449 296.144C242.671 296.144 241.967 295.952 241.337 295.568C240.708 295.184 240.212 294.645 239.849 293.952C239.487 293.259 239.305 292.469 239.305 291.584ZM246.729 291.6C246.729 290.939 246.596 290.363 246.329 289.872C246.063 289.381 245.7 289.008 245.241 288.752C244.793 288.485 244.297 288.352 243.753 288.352C243.209 288.352 242.713 288.48 242.265 288.736C241.817 288.992 241.46 289.365 241.193 289.856C240.927 290.347 240.793 290.923 240.793 291.584C240.793 292.256 240.927 292.843 241.193 293.344C241.46 293.835 241.817 294.213 242.265 294.48C242.713 294.736 243.209 294.864 243.753 294.864C244.297 294.864 244.793 294.736 245.241 294.48C245.7 294.213 246.063 293.835 246.329 293.344C246.596 292.843 246.729 292.261 246.729 291.6ZM254.934 287.072C256 287.072 256.864 287.397 257.526 288.048C258.187 288.688 258.518 289.616 258.518 290.832V296H257.078V291.04C257.078 290.165 256.859 289.499 256.422 289.04C255.984 288.571 255.387 288.336 254.63 288.336C253.862 288.336 253.248 288.576 252.79 289.056C252.342 289.536 252.118 290.235 252.118 291.152V296H250.662V287.232H252.118V288.48C252.406 288.032 252.795 287.685 253.286 287.44C253.787 287.195 254.336 287.072 254.934 287.072ZM261.68 285.808C261.403 285.808 261.168 285.712 260.976 285.52C260.795 285.328 260.704 285.093 260.704 284.816C260.704 284.539 260.795 284.304 260.976 284.112C261.168 283.92 261.403 283.824 261.68 283.824C261.957 283.824 262.187 283.92 262.368 284.112C262.56 284.304 262.656 284.539 262.656 284.816C262.656 285.093 262.56 285.328 262.368 285.52C262.187 285.712 261.957 285.808 261.68 285.808ZM262.4 297.904C262.4 298.683 262.203 299.253 261.808 299.616C261.413 299.979 260.837 300.16 260.08 300.16H259.232V298.928H259.84C260.245 298.928 260.528 298.848 260.688 298.688C260.859 298.528 260.944 298.256 260.944 297.872V287.232H262.4V297.904ZM272.641 287.232V296H271.185V294.704C270.907 295.152 270.518 295.504 270.017 295.76C269.526 296.005 268.982 296.128 268.385 296.128C267.702 296.128 267.089 295.989 266.545 295.712C266.001 295.424 265.569 294.997 265.249 294.432C264.939 293.867 264.785 293.179 264.785 292.368V287.232H266.225V292.176C266.225 293.04 266.443 293.707 266.881 294.176C267.318 294.635 267.915 294.864 268.673 294.864C269.451 294.864 270.065 294.624 270.513 294.144C270.961 293.664 271.185 292.965 271.185 292.048V287.232H272.641ZM276.875 288.432V293.6C276.875 294.027 276.966 294.331 277.147 294.512C277.329 294.683 277.643 294.768 278.091 294.768H279.163V296H277.851C277.041 296 276.433 295.813 276.027 295.44C275.622 295.067 275.419 294.453 275.419 293.6V288.432H274.283V287.232H275.419V285.024H276.875V287.232H279.163V288.432H276.875ZM281.679 285.808C281.402 285.808 281.167 285.712 280.975 285.52C280.783 285.328 280.687 285.093 280.687 284.816C280.687 284.539 280.783 284.304 280.975 284.112C281.167 283.92 281.402 283.824 281.679 283.824C281.946 283.824 282.17 283.92 282.351 284.112C282.543 284.304 282.639 284.539 282.639 284.816C282.639 285.093 282.543 285.328 282.351 285.52C282.17 285.712 281.946 285.808 281.679 285.808ZM282.383 287.232V296H280.927V287.232H282.383ZM285.329 296.096C285.051 296.096 284.817 296 284.625 295.808C284.433 295.616 284.337 295.381 284.337 295.104C284.337 294.827 284.433 294.592 284.625 294.4C284.817 294.208 285.051 294.112 285.329 294.112C285.595 294.112 285.819 294.208 286.001 294.4C286.193 294.592 286.289 294.827 286.289 295.104C286.289 295.381 286.193 295.616 286.001 295.808C285.819 296 285.595 296.096 285.329 296.096Z" fill="#22546D"/>
<rect x="64" y="1" width="162" height="162" rx="81" fill="#E0FFE5" stroke="#4CD964" stroke-width="2"/>
<rect x="95" y="32" width="100" height="100" rx="50" fill="#4CD964"/>
<path d="M163.04 68.6039L160.642 66.6739C159.46 65.7239 158.773 65.7349 157.761 66.9849L140.332 88.4939L132.221 81.7549C131.102 80.8149 130.402 80.8649 129.482 82.0149L127.631 84.4249C126.692 85.6069 126.812 86.2779 127.922 87.2049L139.482 96.7669C140.672 97.7669 141.342 97.6639 142.262 96.5449L163.341 71.4839C164.331 70.2939 164.271 69.5829 163.04 68.6039Z" fill="white"/>
</svg>
