<svg width="33" height="33" viewBox="0 0 33 33" fill="none" xmlns="http://www.w3.org/2000/svg">
<g clip-path="url(#clip0)">
<rect x="0.5" y="0.5" width="32" height="32" rx="16" fill="url(#paint0_linear)"/>
<path d="M10.45 23.0762C12.4666 24.5429 14.4834 25.7162 16.5 25.7162C18.5166 25.7162 20.5334 24.5429 22.55 23.0762C20.8877 22.5702 20.0444 21.8149 20.02 20.8102C20.02 20.6312 20.0213 20.3768 20.0225 19.8993C20.0225 19.8235 20.0227 19.7458 20.0231 19.6664C20.0264 18.386 20.0318 16.6964 20.0394 14.9804C21.6159 12.9369 21.0367 10.5412 20.5427 10.6009C19.9371 10.6746 14.6897 5.69515 13.6832 5.43984C12.6767 5.18453 10.12 6.00876 9.68 8.30501C9.24 10.6013 9.05608 16.3892 10.725 18.7C11.1999 19.3576 11.9479 19.6148 12.969 19.4717C12.9704 19.9522 12.9733 20.222 12.98 20.7662C12.9669 21.8166 12.1236 22.5708 10.45 23.0762Z" fill="url(#paint1_linear)"/>
<path d="M12.98 19.47C15.4 19.195 16.94 18.15 16.94 18.15C16.94 18.15 15.18 20.35 12.98 20.79V19.47Z" fill="#FC9F6A"/>
<path d="M20.845 15.015C21.6029 13.1923 24.64 9.48014 22.022 7.17014C21.142 2.88014 16.28 3.35501 13.035 4.34501C10.854 5.0104 9.20701 6.32501 8.85501 5.33501C6.65501 7.17014 7.75677 8.96501 9.20701 9.48014C10.5233 9.94764 12.749 10.4151 16.5337 9.97514C17.2097 9.89649 17.0682 11.967 17.4294 12.1909C17.9714 12.5267 18.392 10.4151 19.8779 11.0492C21.3638 11.6832 20.482 14.6231 18.887 14.6231C18.337 14.6231 18.062 16.1352 19.547 16.8502C20.625 17.38 20.3525 16.1994 20.845 15.015Z" fill="url(#paint2_linear)"/>
<path d="M28.05 26.4339C29.0972 28.5632 29.7 33.4739 29.7 33.4739H3.3C3.3 33.4739 3.90302 28.5626 4.95 26.4339C5.99698 24.3052 12.111 22.3308 12.111 22.3308C15.4894 23.65 17.5569 23.65 20.8858 22.33C20.8858 22.33 27.0028 24.3046 28.05 26.4339Z" fill="url(#paint3_linear)"/>
<path d="M17.27 23.1L17.82 33.22H15.18L15.73 23.1C15.73 23.1 16.2434 22.55 16.5 22.55C16.7566 22.55 17.27 23.1 17.27 23.1Z" fill="url(#paint4_linear)"/>
<path d="M17.3953 25.1561L15.6655 24.1567L15.73 23.1C16.0722 22.7333 16.3289 22.55 16.5 22.55C16.6711 22.55 16.9277 22.7333 17.27 23.1L17.3954 25.1561H17.3953Z" fill="#22546D"/>
<path d="M16.5 22.5491L15.4 24.53L11.99 22.44L12.98 21.01L16.5 22.3103L20.02 21.01L21.01 22.44L17.6 24.53L16.5 22.5491Z" fill="white"/>
</g>
<rect x="0.5" y="0.5" width="32" height="32" rx="16" stroke="black"/>
<defs>
<linearGradient id="paint0_linear" x1="16.5" y1="0" x2="16.5" y2="33" gradientUnits="userSpaceOnUse">
<stop stop-color="#CDD0D2"/>
<stop offset="1" stop-color="#193F52"/>
</linearGradient>
<linearGradient id="paint1_linear" x1="15.9634" y1="5.39518" x2="15.9634" y2="25.7162" gradientUnits="userSpaceOnUse">
<stop stop-color="#F7B186"/>
<stop offset="1" stop-color="#FFC299"/>
</linearGradient>
<linearGradient id="paint2_linear" x1="15.3384" y1="3.67267" x2="15.3384" y2="16.9805" gradientUnits="userSpaceOnUse">
<stop stop-color="#1D0024"/>
<stop offset="1" stop-color="#100014"/>
</linearGradient>
<linearGradient id="paint3_linear" x1="16.5" y1="22.33" x2="16.5" y2="33.4739" gradientUnits="userSpaceOnUse">
<stop stop-color="#1D0024"/>
<stop offset="1" stop-color="#100014"/>
</linearGradient>
<linearGradient id="paint4_linear" x1="16.5" y1="22.55" x2="16.5" y2="33.22" gradientUnits="userSpaceOnUse">
<stop stop-color="#CDD0D2"/>
<stop offset="1" stop-color="#193F52"/>
</linearGradient>
<clipPath id="clip0">
</clipPath>
</defs>

</svg>
