<svg width="96" height="58" viewBox="0 0 96 58" fill="none" xmlns="http://www.w3.org/2000/svg">
<path d="M28.0647 47.296H24.5727L23.9727 49H22.5447L25.5327 40.648H27.1167L30.1047 49H28.6647L28.0647 47.296ZM27.6807 46.18L26.3247 42.304L24.9567 46.18H27.6807ZM34.0199 45.7L37.0679 49H35.2199L32.7719 46.156V49H31.4039V40.12H32.7719V45.28L35.1719 42.388H37.0679L34.0199 45.7ZM39.6444 43.504V47.164C39.6444 47.412 39.7004 47.592 39.8124 47.704C39.9324 47.808 40.1324 47.86 40.4124 47.86H41.2524V49H40.1724C39.5564 49 39.0844 48.856 38.7564 48.568C38.4284 48.28 38.2644 47.812 38.2644 47.164V43.504H37.4844V42.388H38.2644V40.744H39.6444V42.388H41.2524V43.504H39.6444ZM43.2093 41.512C42.9613 41.512 42.7533 41.428 42.5853 41.26C42.4173 41.092 42.3333 40.884 42.3333 40.636C42.3333 40.388 42.4173 40.18 42.5853 40.012C42.7533 39.844 42.9613 39.76 43.2093 39.76C43.4493 39.76 43.6533 39.844 43.8213 40.012C43.9893 40.18 44.0733 40.388 44.0733 40.636C44.0733 40.884 43.9893 41.092 43.8213 41.26C43.6533 41.428 43.4493 41.512 43.2093 41.512ZM43.8813 42.388V49H42.5133V42.388H43.8813ZM48.2333 47.776L50.1053 42.388H51.5573L49.0373 49H47.4053L44.8973 42.388H46.3613L48.2333 47.776ZM53.2874 41.512C53.0394 41.512 52.8314 41.428 52.6634 41.26C52.4954 41.092 52.4114 40.884 52.4114 40.636C52.4114 40.388 52.4954 40.18 52.6634 40.012C52.8314 39.844 53.0394 39.76 53.2874 39.76C53.5274 39.76 53.7314 39.844 53.8994 40.012C54.0674 40.18 54.1514 40.388 54.1514 40.636C54.1514 40.884 54.0674 41.092 53.8994 41.26C53.7314 41.428 53.5274 41.512 53.2874 41.512ZM53.9594 42.388V49H52.5914V42.388H53.9594ZM57.3515 43.504V47.164C57.3515 47.412 57.4075 47.592 57.5195 47.704C57.6395 47.808 57.8395 47.86 58.1195 47.86H58.9595V49H57.8795C57.2635 49 56.7915 48.856 56.4635 48.568C56.1355 48.28 55.9715 47.812 55.9715 47.164V43.504H55.1915V42.388H55.9715V40.744H57.3515V42.388H58.9595V43.504H57.3515ZM59.7643 45.664C59.7643 45 59.9003 44.412 60.1723 43.9C60.4523 43.388 60.8283 42.992 61.3003 42.712C61.7803 42.424 62.3083 42.28 62.8843 42.28C63.4043 42.28 63.8563 42.384 64.2403 42.592C64.6323 42.792 64.9443 43.044 65.1763 43.348V42.388H66.5563V49H65.1763V48.016C64.9443 48.328 64.6283 48.588 64.2283 48.796C63.8283 49.004 63.3723 49.108 62.8603 49.108C62.2923 49.108 61.7723 48.964 61.3003 48.676C60.8283 48.38 60.4523 47.972 60.1723 47.452C59.9003 46.924 59.7643 46.328 59.7643 45.664ZM65.1763 45.688C65.1763 45.232 65.0803 44.836 64.8883 44.5C64.7043 44.164 64.4603 43.908 64.1563 43.732C63.8523 43.556 63.5243 43.468 63.1723 43.468C62.8203 43.468 62.4923 43.556 62.1883 43.732C61.8843 43.9 61.6363 44.152 61.4443 44.488C61.2603 44.816 61.1683 45.208 61.1683 45.664C61.1683 46.12 61.2603 46.52 61.4443 46.864C61.6363 47.208 61.8843 47.472 62.1883 47.656C62.5003 47.832 62.8283 47.92 63.1723 47.92C63.5243 47.92 63.8523 47.832 64.1563 47.656C64.4603 47.48 64.7043 47.224 64.8883 46.888C65.0803 46.544 65.1763 46.144 65.1763 45.688ZM70.7531 49.108C70.2331 49.108 69.7651 49.016 69.3491 48.832C68.9411 48.64 68.6171 48.384 68.3771 48.064C68.1371 47.736 68.0091 47.372 67.9931 46.972H69.4091C69.4331 47.252 69.5651 47.488 69.8051 47.68C70.0531 47.864 70.3611 47.956 70.7291 47.956C71.1131 47.956 71.4091 47.884 71.6171 47.74C71.8331 47.588 71.9411 47.396 71.9411 47.164C71.9411 46.916 71.8211 46.732 71.5811 46.612C71.3491 46.492 70.9771 46.36 70.4651 46.216C69.9691 46.08 69.5651 45.948 69.2531 45.82C68.9411 45.692 68.6691 45.496 68.4371 45.232C68.2131 44.968 68.1011 44.62 68.1011 44.188C68.1011 43.836 68.2051 43.516 68.4131 43.228C68.6211 42.932 68.9171 42.7 69.3011 42.532C69.6931 42.364 70.1411 42.28 70.6451 42.28C71.3971 42.28 72.0011 42.472 72.4571 42.856C72.9211 43.232 73.1691 43.748 73.2011 44.404H71.8331C71.8091 44.108 71.6891 43.872 71.4731 43.696C71.2571 43.52 70.9651 43.432 70.5971 43.432C70.2371 43.432 69.9611 43.5 69.7691 43.636C69.5771 43.772 69.4811 43.952 69.4811 44.176C69.4811 44.352 69.5451 44.5 69.6731 44.62C69.8011 44.74 69.9571 44.836 70.1411 44.908C70.3251 44.972 70.5971 45.056 70.9571 45.16C71.4371 45.288 71.8291 45.42 72.1331 45.556C72.4451 45.684 72.7131 45.876 72.9371 46.132C73.1611 46.388 73.2771 46.728 73.2851 47.152C73.2851 47.528 73.1811 47.864 72.9731 48.16C72.7651 48.456 72.4691 48.688 72.0851 48.856C71.7091 49.024 71.2651 49.108 70.7531 49.108Z" fill="black"/>
<path d="M48 29.3334C55.3638 29.3334 61.3334 23.3638 61.3334 16C61.3334 8.63622 55.3638 2.66669 48 2.66669C40.6362 2.66669 34.6667 8.63622 34.6667 16C34.6667 23.3638 40.6362 29.3334 48 29.3334Z" stroke="black" stroke-width="2" stroke-linecap="round" stroke-linejoin="round"/>
<path d="M48 8V16L53.3333 18.6667" stroke="black" stroke-width="2" stroke-linecap="round" stroke-linejoin="round"/>
</svg>
