<svg width="96" height="58" viewBox="0 0 96 58" fill="none" xmlns="http://www.w3.org/2000/svg">
<path d="M26.2673 47.512H23.1233L22.6193 49H20.4713L23.5193 40.576H25.8953L28.9433 49H26.7713L26.2673 47.512ZM25.7393 45.928L24.6953 42.844L23.6633 45.928H25.7393ZM33.963 49L31.923 46.192V49H29.871V40.12H31.923V45.028L33.951 42.304H36.483L33.699 45.664L36.507 49H33.963ZM41.0209 47.26V49H39.9769C39.2329 49 38.6529 48.82 38.2369 48.46C37.8209 48.092 37.6129 47.496 37.6129 46.672V44.008H36.7969V42.304H37.6129V40.672H39.6649V42.304H41.0089V44.008H39.6649V46.696C39.6649 46.896 39.7129 47.04 39.8089 47.128C39.9049 47.216 40.0649 47.26 40.2889 47.26H41.0209ZM43.1959 41.608C42.8359 41.608 42.5399 41.504 42.3079 41.296C42.0839 41.08 41.9719 40.816 41.9719 40.504C41.9719 40.184 42.0839 39.92 42.3079 39.712C42.5399 39.496 42.8359 39.388 43.1959 39.388C43.5479 39.388 43.8359 39.496 44.0599 39.712C44.2919 39.92 44.4079 40.184 44.4079 40.504C44.4079 40.816 44.2919 41.08 44.0599 41.296C43.8359 41.504 43.5479 41.608 43.1959 41.608ZM44.2159 42.304V49H42.1639V42.304H44.2159ZM48.715 47.08L50.167 42.304H52.351L49.975 49H47.443L45.067 42.304H47.263L48.715 47.08ZM54.2467 41.608C53.8867 41.608 53.5907 41.504 53.3587 41.296C53.1347 41.08 53.0227 40.816 53.0227 40.504C53.0227 40.184 53.1347 39.92 53.3587 39.712C53.5907 39.496 53.8867 39.388 54.2467 39.388C54.5987 39.388 54.8867 39.496 55.1107 39.712C55.3427 39.92 55.4587 40.184 55.4587 40.504C55.4587 40.816 55.3427 41.08 55.1107 41.296C54.8867 41.504 54.5987 41.608 54.2467 41.608ZM55.2667 42.304V49H53.2147V42.304H55.2667ZM60.4858 47.26V49H59.4418C58.6978 49 58.1178 48.82 57.7018 48.46C57.2858 48.092 57.0778 47.496 57.0778 46.672V44.008H56.2618V42.304H57.0778V40.672H59.1298V42.304H60.4738V44.008H59.1298V46.696C59.1298 46.896 59.1778 47.04 59.2738 47.128C59.3698 47.216 59.5298 47.26 59.7538 47.26H60.4858ZM61.2208 45.64C61.2208 44.952 61.3488 44.348 61.6048 43.828C61.8688 43.308 62.2248 42.908 62.6728 42.628C63.1208 42.348 63.6208 42.208 64.1728 42.208C64.6448 42.208 65.0568 42.304 65.4088 42.496C65.7688 42.688 66.0448 42.94 66.2368 43.252V42.304H68.2888V49H66.2368V48.052C66.0368 48.364 65.7568 48.616 65.3968 48.808C65.0448 49 64.6328 49.096 64.1608 49.096C63.6168 49.096 63.1208 48.956 62.6728 48.676C62.2248 48.388 61.8688 47.984 61.6048 47.464C61.3488 46.936 61.2208 46.328 61.2208 45.64ZM66.2368 45.652C66.2368 45.14 66.0928 44.736 65.8048 44.44C65.5248 44.144 65.1808 43.996 64.7728 43.996C64.3648 43.996 64.0168 44.144 63.7288 44.44C63.4488 44.728 63.3088 45.128 63.3088 45.64C63.3088 46.152 63.4488 46.56 63.7288 46.864C64.0168 47.16 64.3648 47.308 64.7728 47.308C65.1808 47.308 65.5248 47.16 65.8048 46.864C66.0928 46.568 66.2368 46.164 66.2368 45.652ZM72.4973 49.096C71.9133 49.096 71.3933 48.996 70.9373 48.796C70.4813 48.596 70.1213 48.324 69.8573 47.98C69.5933 47.628 69.4453 47.236 69.4133 46.804H71.4413C71.4653 47.036 71.5733 47.224 71.7653 47.368C71.9573 47.512 72.1933 47.584 72.4733 47.584C72.7293 47.584 72.9253 47.536 73.0613 47.44C73.2053 47.336 73.2773 47.204 73.2773 47.044C73.2773 46.852 73.1773 46.712 72.9773 46.624C72.7773 46.528 72.4533 46.424 72.0053 46.312C71.5253 46.2 71.1253 46.084 70.8053 45.964C70.4853 45.836 70.2093 45.64 69.9773 45.376C69.7453 45.104 69.6293 44.74 69.6293 44.284C69.6293 43.9 69.7333 43.552 69.9413 43.24C70.1573 42.92 70.4693 42.668 70.8773 42.484C71.2933 42.3 71.7853 42.208 72.3533 42.208C73.1933 42.208 73.8533 42.416 74.3333 42.832C74.8213 43.248 75.1013 43.8 75.1733 44.488H73.2773C73.2453 44.256 73.1413 44.072 72.9653 43.936C72.7973 43.8 72.5733 43.732 72.2933 43.732C72.0533 43.732 71.8693 43.78 71.7413 43.876C71.6133 43.964 71.5493 44.088 71.5493 44.248C71.5493 44.44 71.6493 44.584 71.8493 44.68C72.0573 44.776 72.3773 44.872 72.8093 44.968C73.3053 45.096 73.7093 45.224 74.0213 45.352C74.3333 45.472 74.6053 45.672 74.8373 45.952C75.0773 46.224 75.2013 46.592 75.2093 47.056C75.2093 47.448 75.0973 47.8 74.8733 48.112C74.6573 48.416 74.3413 48.656 73.9253 48.832C73.5173 49.008 73.0413 49.096 72.4973 49.096Z" fill="black"/>
<path d="M48 29.3334C55.3638 29.3334 61.3333 23.3638 61.3333 16C61.3333 8.63622 55.3638 2.66669 48 2.66669C40.6362 2.66669 34.6666 8.63622 34.6666 16C34.6666 23.3638 40.6362 29.3334 48 29.3334Z" stroke="black" stroke-width="2" stroke-linecap="round" stroke-linejoin="round"/>
<path d="M48 8V16L53.3333 18.6667" stroke="black" stroke-width="3" stroke-linecap="round" stroke-linejoin="round"/>
</svg>
