<svg width="96" height="58" viewBox="0 0 96 58" fill="none" xmlns="http://www.w3.org/2000/svg">
<path d="M33.4054 47.416H36.0934V49H31.3534V40.576H33.4054V47.416ZM36.6641 45.64C36.6641 44.952 36.7921 44.348 37.0481 43.828C37.3121 43.308 37.6681 42.908 38.1161 42.628C38.5641 42.348 39.0641 42.208 39.6161 42.208C40.0881 42.208 40.5001 42.304 40.8521 42.496C41.2121 42.688 41.4881 42.94 41.6801 43.252V42.304H43.7321V49H41.6801V48.052C41.4801 48.364 41.2001 48.616 40.8401 48.808C40.4881 49 40.0761 49.096 39.6041 49.096C39.0601 49.096 38.5641 48.956 38.1161 48.676C37.6681 48.388 37.3121 47.984 37.0481 47.464C36.7921 46.936 36.6641 46.328 36.6641 45.64ZM41.6801 45.652C41.6801 45.14 41.5361 44.736 41.2481 44.44C40.9681 44.144 40.6241 43.996 40.2161 43.996C39.8081 43.996 39.4601 44.144 39.1721 44.44C38.8921 44.728 38.7521 45.128 38.7521 45.64C38.7521 46.152 38.8921 46.56 39.1721 46.864C39.4601 47.16 39.8081 47.308 40.2161 47.308C40.6241 47.308 40.9681 47.16 41.2481 46.864C41.5361 46.568 41.6801 46.164 41.6801 45.652ZM47.2687 43.252C47.4687 42.94 47.7447 42.688 48.0967 42.496C48.4487 42.304 48.8607 42.208 49.3327 42.208C49.8847 42.208 50.3847 42.348 50.8327 42.628C51.2807 42.908 51.6327 43.308 51.8887 43.828C52.1527 44.348 52.2847 44.952 52.2847 45.64C52.2847 46.328 52.1527 46.936 51.8887 47.464C51.6327 47.984 51.2807 48.388 50.8327 48.676C50.3847 48.956 49.8847 49.096 49.3327 49.096C48.8687 49.096 48.4567 49 48.0967 48.808C47.7447 48.616 47.4687 48.368 47.2687 48.064V52.192H45.2167V42.304H47.2687V43.252ZM50.1967 45.64C50.1967 45.128 50.0527 44.728 49.7647 44.44C49.4847 44.144 49.1367 43.996 48.7207 43.996C48.3127 43.996 47.9647 44.144 47.6767 44.44C47.3967 44.736 47.2567 45.14 47.2567 45.652C47.2567 46.164 47.3967 46.568 47.6767 46.864C47.9647 47.16 48.3127 47.308 48.7207 47.308C49.1287 47.308 49.4767 47.16 49.7647 46.864C50.0527 46.56 50.1967 46.152 50.1967 45.64ZM56.4092 49.096C55.7532 49.096 55.1612 48.956 54.6332 48.676C54.1132 48.396 53.7012 47.996 53.3972 47.476C53.1012 46.956 52.9532 46.348 52.9532 45.652C52.9532 44.964 53.1052 44.36 53.4092 43.84C53.7132 43.312 54.1292 42.908 54.6572 42.628C55.1852 42.348 55.7772 42.208 56.4332 42.208C57.0892 42.208 57.6812 42.348 58.2092 42.628C58.7372 42.908 59.1532 43.312 59.4572 43.84C59.7612 44.36 59.9132 44.964 59.9132 45.652C59.9132 46.34 59.7572 46.948 59.4452 47.476C59.1412 47.996 58.7212 48.396 58.1852 48.676C57.6572 48.956 57.0652 49.096 56.4092 49.096ZM56.4092 47.32C56.8012 47.32 57.1332 47.176 57.4052 46.888C57.6852 46.6 57.8252 46.188 57.8252 45.652C57.8252 45.116 57.6892 44.704 57.4172 44.416C57.1532 44.128 56.8252 43.984 56.4332 43.984C56.0332 43.984 55.7012 44.128 55.4372 44.416C55.1732 44.696 55.0412 45.108 55.0412 45.652C55.0412 46.188 55.1692 46.6 55.4252 46.888C55.6892 47.176 56.0172 47.32 56.4092 47.32ZM63.0538 43.42C63.2938 43.052 63.5938 42.764 63.9538 42.556C64.3138 42.34 64.7138 42.232 65.1538 42.232V44.404H64.5898C64.0778 44.404 63.6938 44.516 63.4378 44.74C63.1818 44.956 63.0538 45.34 63.0538 45.892V49H61.0018V42.304H63.0538V43.42Z" fill="black"/>
<path d="M61.3334 7.99998C61.3334 6.53331 60.1334 5.33331 58.6667 5.33331H37.3334C35.8667 5.33331 34.6667 6.53331 34.6667 7.99998M61.3334 7.99998V24C61.3334 25.4666 60.1334 26.6666 58.6667 26.6666H37.3334C35.8667 26.6666 34.6667 25.4666 34.6667 24V7.99998M61.3334 7.99998L48 17.3333L34.6667 7.99998" stroke="#090A0A" stroke-width="3" stroke-linecap="round" stroke-linejoin="round"/>
</svg>
