<svg width="96" height="58" viewBox="0 0 96 58" fill="none" xmlns="http://www.w3.org/2000/svg">

<path d="M33.3403 47.896H36.1603V49H31.9723V40.66H33.3403V47.896ZM36.8483 45.664C36.8483 45 36.9843 44.412 37.2563 43.9C37.5363 43.388 37.9123 42.992 38.3843 42.712C38.8643 42.424 39.3923 42.28 39.9683 42.28C40.4883 42.28 40.9403 42.384 41.3243 42.592C41.7163 42.792 42.0283 43.044 42.2603 43.348V42.388H43.6403V49H42.2603V48.016C42.0283 48.328 41.7123 48.588 41.3123 48.796C40.9123 49.004 40.4563 49.108 39.9443 49.108C39.3763 49.108 38.8563 48.964 38.3843 48.676C37.9123 48.38 37.5363 47.972 37.2563 47.452C36.9843 46.924 36.8483 46.328 36.8483 45.664ZM42.2603 45.688C42.2603 45.232 42.1643 44.836 41.9723 44.5C41.7883 44.164 41.5443 43.908 41.2403 43.732C40.9363 43.556 40.6083 43.468 40.2563 43.468C39.9043 43.468 39.5763 43.556 39.2723 43.732C38.9683 43.9 38.7203 44.152 38.5283 44.488C38.3443 44.816 38.2523 45.208 38.2523 45.664C38.2523 46.12 38.3443 46.52 38.5283 46.864C38.7203 47.208 38.9683 47.472 39.2723 47.656C39.5843 47.832 39.9123 47.92 40.2563 47.92C40.6083 47.92 40.9363 47.832 41.2403 47.656C41.5443 47.48 41.7883 47.224 41.9723 46.888C42.1643 46.544 42.2603 46.144 42.2603 45.688ZM46.8051 43.36C47.0371 43.056 47.3531 42.8 47.7531 42.592C48.1531 42.384 48.6051 42.28 49.1091 42.28C49.6851 42.28 50.2091 42.424 50.6811 42.712C51.1611 42.992 51.5371 43.388 51.8091 43.9C52.0811 44.412 52.2171 45 52.2171 45.664C52.2171 46.328 52.0811 46.924 51.8091 47.452C51.5371 47.972 51.1611 48.38 50.6811 48.676C50.2091 48.964 49.6851 49.108 49.1091 49.108C48.6051 49.108 48.1571 49.008 47.7651 48.808C47.3731 48.6 47.0531 48.344 46.8051 48.04V52.144H45.4371V42.388H46.8051V43.36ZM50.8251 45.664C50.8251 45.208 50.7291 44.816 50.5371 44.488C50.3531 44.152 50.1051 43.9 49.7931 43.732C49.4891 43.556 49.1611 43.468 48.8091 43.468C48.4651 43.468 48.1371 43.556 47.8251 43.732C47.5211 43.908 47.2731 44.164 47.0811 44.5C46.8971 44.836 46.8051 45.232 46.8051 45.688C46.8051 46.144 46.8971 46.544 47.0811 46.888C47.2731 47.224 47.5211 47.48 47.8251 47.656C48.1371 47.832 48.4651 47.92 48.8091 47.92C49.1611 47.92 49.4891 47.832 49.7931 47.656C50.1051 47.472 50.3531 47.208 50.5371 46.864C50.7291 46.52 50.8251 46.12 50.8251 45.664ZM56.4379 49.108C55.8139 49.108 55.2499 48.968 54.7459 48.688C54.2419 48.4 53.8459 48 53.5579 47.488C53.2699 46.968 53.1259 46.368 53.1259 45.688C53.1259 45.016 53.2739 44.42 53.5699 43.9C53.8659 43.38 54.2699 42.98 54.7819 42.7C55.2939 42.42 55.8659 42.28 56.4979 42.28C57.1299 42.28 57.7019 42.42 58.2139 42.7C58.7259 42.98 59.1299 43.38 59.4259 43.9C59.7219 44.42 59.8699 45.016 59.8699 45.688C59.8699 46.36 59.7179 46.956 59.4139 47.476C59.1099 47.996 58.6939 48.4 58.1659 48.688C57.6459 48.968 57.0699 49.108 56.4379 49.108ZM56.4379 47.92C56.7899 47.92 57.1179 47.836 57.4219 47.668C57.7339 47.5 57.9859 47.248 58.1779 46.912C58.3699 46.576 58.4659 46.168 58.4659 45.688C58.4659 45.208 58.3739 44.804 58.1899 44.476C58.0059 44.14 57.7619 43.888 57.4579 43.72C57.1539 43.552 56.8259 43.468 56.4739 43.468C56.1219 43.468 55.7939 43.552 55.4899 43.72C55.1939 43.888 54.9579 44.14 54.7819 44.476C54.6059 44.804 54.5179 45.208 54.5179 45.688C54.5179 46.4 54.6979 46.952 55.0579 47.344C55.4259 47.728 55.8859 47.92 56.4379 47.92ZM62.5903 43.348C62.7903 43.012 63.0543 42.752 63.3823 42.568C63.7183 42.376 64.1143 42.28 64.5703 42.28V43.696H64.2223C63.6863 43.696 63.2783 43.832 62.9983 44.104C62.7263 44.376 62.5903 44.848 62.5903 45.52V49H61.2223V42.388H62.5903V43.348Z" fill="black"/>
<path d="M61.3334 7.99998C61.3334 6.53331 60.1334 5.33331 58.6667 5.33331H37.3334C35.8667 5.33331 34.6667 6.53331 34.6667 7.99998M61.3334 7.99998V24C61.3334 25.4666 60.1334 26.6666 58.6667 26.6666H37.3334C35.8667 26.6666 34.6667 25.4666 34.6667 24V7.99998M61.3334 7.99998L48 17.3333L34.6667 7.99998" stroke="#090A0A" stroke-width="1.5" stroke-linecap="round" stroke-linejoin="round"/>

</svg>
