<svg width="96" height="58" viewBox="0 0 96 58" fill="none" xmlns="http://www.w3.org/2000/svg">
<path d="M22.5243 40.66V41.776H20.3043V49H18.9363V41.776H16.7043V40.66H22.5243ZM29.9698 45.532C29.9698 45.78 29.9538 46.004 29.9218 46.204H24.8698C24.9098 46.732 25.1058 47.156 25.4578 47.476C25.8098 47.796 26.2418 47.956 26.7538 47.956C27.4898 47.956 28.0098 47.648 28.3138 47.032H29.7898C29.5898 47.64 29.2258 48.14 28.6978 48.532C28.1778 48.916 27.5298 49.108 26.7538 49.108C26.1218 49.108 25.5538 48.968 25.0498 48.688C24.5538 48.4 24.1618 48 23.8738 47.488C23.5938 46.968 23.4538 46.368 23.4538 45.688C23.4538 45.008 23.5898 44.412 23.8618 43.9C24.1418 43.38 24.5298 42.98 25.0258 42.7C25.5298 42.42 26.1058 42.28 26.7538 42.28C27.3778 42.28 27.9338 42.416 28.4218 42.688C28.9098 42.96 29.2898 43.344 29.5618 43.84C29.8338 44.328 29.9698 44.892 29.9698 45.532ZM28.5418 45.1C28.5338 44.596 28.3538 44.192 28.0018 43.888C27.6498 43.584 27.2138 43.432 26.6938 43.432C26.2218 43.432 25.8178 43.584 25.4818 43.888C25.1458 44.184 24.9458 44.588 24.8818 45.1H28.5418ZM32.684 40.12V49H31.316V40.12H32.684ZM40.5401 45.532C40.5401 45.78 40.5241 46.004 40.4921 46.204H35.4401C35.4801 46.732 35.6761 47.156 36.0281 47.476C36.3801 47.796 36.8121 47.956 37.3241 47.956C38.0601 47.956 38.5801 47.648 38.8841 47.032H40.3601C40.1601 47.64 39.7961 48.14 39.2681 48.532C38.7481 48.916 38.1001 49.108 37.3241 49.108C36.6921 49.108 36.1241 48.968 35.6201 48.688C35.1241 48.4 34.7321 48 34.4441 47.488C34.1641 46.968 34.0241 46.368 34.0241 45.688C34.0241 45.008 34.1601 44.412 34.4321 43.9C34.7121 43.38 35.1001 42.98 35.5961 42.7C36.1001 42.42 36.6761 42.28 37.3241 42.28C37.9481 42.28 38.5041 42.416 38.9921 42.688C39.4801 42.96 39.8601 43.344 40.1321 43.84C40.4041 44.328 40.5401 44.892 40.5401 45.532ZM39.1121 45.1C39.1041 44.596 38.9241 44.192 38.5721 43.888C38.2201 43.584 37.7841 43.432 37.2641 43.432C36.7921 43.432 36.3881 43.584 36.0521 43.888C35.7161 44.184 35.5161 44.588 35.4521 45.1H39.1121ZM43.2543 43.36C43.4863 43.056 43.8023 42.8 44.2023 42.592C44.6023 42.384 45.0543 42.28 45.5583 42.28C46.1343 42.28 46.6583 42.424 47.1303 42.712C47.6103 42.992 47.9863 43.388 48.2583 43.9C48.5303 44.412 48.6663 45 48.6663 45.664C48.6663 46.328 48.5303 46.924 48.2583 47.452C47.9863 47.972 47.6103 48.38 47.1303 48.676C46.6583 48.964 46.1343 49.108 45.5583 49.108C45.0543 49.108 44.6063 49.008 44.2143 48.808C43.8223 48.6 43.5023 48.344 43.2543 48.04V52.144H41.8863V42.388H43.2543V43.36ZM47.2743 45.664C47.2743 45.208 47.1783 44.816 46.9863 44.488C46.8023 44.152 46.5543 43.9 46.2423 43.732C45.9383 43.556 45.6103 43.468 45.2583 43.468C44.9143 43.468 44.5863 43.556 44.2743 43.732C43.9703 43.908 43.7223 44.164 43.5303 44.5C43.3463 44.836 43.2543 45.232 43.2543 45.688C43.2543 46.144 43.3463 46.544 43.5303 46.888C43.7223 47.224 43.9703 47.48 44.2743 47.656C44.5863 47.832 44.9143 47.92 45.2583 47.92C45.6103 47.92 45.9383 47.832 46.2423 47.656C46.5543 47.472 46.8023 47.208 46.9863 46.864C47.1783 46.52 47.2743 46.12 47.2743 45.664ZM53.4391 42.28C53.9431 42.28 54.3911 42.388 54.7831 42.604C55.1831 42.82 55.4951 43.14 55.7191 43.564C55.9511 43.988 56.0671 44.5 56.0671 45.1V49H54.7111V45.304C54.7111 44.712 54.5631 44.26 54.2671 43.948C53.9711 43.628 53.5671 43.468 53.0551 43.468C52.5431 43.468 52.1351 43.628 51.8311 43.948C51.5351 44.26 51.3871 44.712 51.3871 45.304V49H50.0191V40.12H51.3871V43.156C51.6191 42.876 51.9111 42.66 52.2631 42.508C52.6231 42.356 53.0151 42.28 53.4391 42.28ZM60.6801 49.108C60.0561 49.108 59.4921 48.968 58.9881 48.688C58.4841 48.4 58.0881 48 57.8001 47.488C57.5121 46.968 57.3681 46.368 57.3681 45.688C57.3681 45.016 57.5161 44.42 57.8121 43.9C58.1081 43.38 58.5121 42.98 59.0241 42.7C59.5361 42.42 60.1081 42.28 60.7401 42.28C61.3721 42.28 61.9441 42.42 62.4561 42.7C62.9681 42.98 63.3721 43.38 63.6681 43.9C63.9641 44.42 64.1121 45.016 64.1121 45.688C64.1121 46.36 63.9601 46.956 63.6561 47.476C63.3521 47.996 62.9361 48.4 62.4081 48.688C61.8881 48.968 61.3121 49.108 60.6801 49.108ZM60.6801 47.92C61.0321 47.92 61.3601 47.836 61.6641 47.668C61.9761 47.5 62.2281 47.248 62.4201 46.912C62.6121 46.576 62.7081 46.168 62.7081 45.688C62.7081 45.208 62.6161 44.804 62.4321 44.476C62.2481 44.14 62.0041 43.888 61.7001 43.72C61.3961 43.552 61.0681 43.468 60.7161 43.468C60.3641 43.468 60.0361 43.552 59.7321 43.72C59.4361 43.888 59.2001 44.14 59.0241 44.476C58.8481 44.804 58.7601 45.208 58.7601 45.688C58.7601 46.4 58.9401 46.952 59.3001 47.344C59.6681 47.728 60.1281 47.92 60.6801 47.92ZM68.8005 42.28C69.3205 42.28 69.7845 42.388 70.1925 42.604C70.6085 42.82 70.9325 43.14 71.1645 43.564C71.3965 43.988 71.5125 44.5 71.5125 45.1V49H70.1565V45.304C70.1565 44.712 70.0085 44.26 69.7125 43.948C69.4165 43.628 69.0125 43.468 68.5005 43.468C67.9885 43.468 67.5805 43.628 67.2765 43.948C66.9805 44.26 66.8325 44.712 66.8325 45.304V49H65.4645V42.388H66.8325V43.144C67.0565 42.872 67.3405 42.66 67.6845 42.508C68.0365 42.356 68.4085 42.28 68.8005 42.28ZM79.3174 45.532C79.3174 45.78 79.3014 46.004 79.2694 46.204H74.2174C74.2574 46.732 74.4534 47.156 74.8054 47.476C75.1574 47.796 75.5894 47.956 76.1014 47.956C76.8374 47.956 77.3574 47.648 77.6614 47.032H79.1374C78.9374 47.64 78.5734 48.14 78.0454 48.532C77.5254 48.916 76.8774 49.108 76.1014 49.108C75.4694 49.108 74.9014 48.968 74.3974 48.688C73.9014 48.4 73.5094 48 73.2214 47.488C72.9414 46.968 72.8014 46.368 72.8014 45.688C72.8014 45.008 72.9374 44.412 73.2094 43.9C73.4894 43.38 73.8774 42.98 74.3734 42.7C74.8774 42.42 75.4534 42.28 76.1014 42.28C76.7254 42.28 77.2814 42.416 77.7694 42.688C78.2574 42.96 78.6374 43.344 78.9094 43.84C79.1814 44.328 79.3174 44.892 79.3174 45.532ZM77.8894 45.1C77.8814 44.596 77.7014 44.192 77.3494 43.888C76.9974 43.584 76.5614 43.432 76.0414 43.432C75.5694 43.432 75.1654 43.584 74.8294 43.888C74.4934 44.184 74.2934 44.588 74.2294 45.1H77.8894Z" fill="black"/>
<path d="M52.0667 6.66665C53.369 6.92073 54.5659 7.55766 55.5041 8.49589C56.4423 9.43413 57.0793 10.631 57.3333 11.9333M52.0667 1.33331C54.7724 1.63389 57.2955 2.84555 59.2217 4.76932C61.1479 6.6931 62.3627 9.21466 62.6667 11.92M61.3333 22.56V26.56C61.3349 26.9313 61.2588 27.2989 61.11 27.6391C60.9613 27.9793 60.7431 28.2848 60.4695 28.5358C60.1958 28.7868 59.8728 28.978 59.521 29.0969C59.1692 29.2159 58.7965 29.2601 58.4267 29.2266C54.3238 28.7808 50.3827 27.3788 46.92 25.1333C43.6985 23.0862 40.9671 20.3549 38.92 17.1333C36.6667 13.6549 35.2643 9.69464 34.8267 5.57331C34.7934 5.2046 34.8372 4.83299 34.9553 4.48215C35.0735 4.1313 35.2634 3.8089 35.513 3.53547C35.7626 3.26205 36.0664 3.04359 36.4051 2.89401C36.7437 2.74443 37.1098 2.66699 37.48 2.66665H41.48C42.1271 2.66028 42.7544 2.88942 43.245 3.31136C43.7357 3.7333 44.0561 4.31924 44.1467 4.95998C44.3155 6.24007 44.6286 7.49695 45.08 8.70665C45.2594 9.18388 45.2982 9.70253 45.1919 10.2012C45.0855 10.6998 44.8385 11.1575 44.48 11.52L42.7867 13.2133C44.6848 16.5514 47.4486 19.3152 50.7867 21.2133L52.48 19.52C52.8425 19.1615 53.3002 18.9144 53.7988 18.8081C54.2975 18.7018 54.8161 18.7406 55.2933 18.92C56.503 19.3714 57.7599 19.6845 59.04 19.8533C59.6877 19.9447 60.2792 20.2709 60.7021 20.77C61.1249 21.269 61.3496 21.9061 61.3333 22.56Z" stroke="black" stroke-width="2" stroke-linecap="round" stroke-linejoin="round"/>
</svg>
